<svg width="109" height="49" viewBox="0 0 109 49" fill="none" xmlns="http://www.w3.org/2000/svg">
<path d="M33.4067 26.4005L34.315 24.6542H34.6178V26.2978C33.8104 26.7087 33.003 26.9141 32.0947 26.9141C30.0761 26.9141 28.2595 25.6814 28.2595 22.9079C28.2595 20.1343 30.0761 18.9016 32.0947 18.9016C33.003 18.9016 33.8104 19.107 34.6178 19.5179V21.1615H34.315L33.4067 19.5179C33.1039 19.4152 32.7002 19.4152 32.3974 19.4152C30.7826 19.4152 29.7734 20.6479 29.7734 23.0106C29.7734 25.3733 30.8835 26.606 32.3974 26.606C32.7002 26.5032 33.1039 26.5032 33.4067 26.4005ZM36.2326 19.3125V19.0043H39.5632V19.3125L38.5539 19.6206V24.346C38.5539 25.5787 39.2604 26.2978 40.4715 26.2978C41.6826 26.2978 42.49 25.476 42.49 24.1406V19.7234L41.3798 19.3125V19.0043H44.0039V19.3125L42.9947 19.7234V24.1406C42.9947 25.9896 41.7835 26.9141 40.1687 26.9141C38.5539 26.9141 37.2419 25.9896 37.2419 24.1406V19.6206L36.2326 19.3125ZM47.7382 26.1951L48.8484 26.5032V26.8114H45.4169V26.5032L46.4261 26.1951V19.6206L45.4169 19.3125V19.0043H48.8484C50.2613 19.0043 51.4724 19.5179 51.4724 20.9561C51.4724 21.9833 50.665 22.7024 49.4539 22.9079C51.6743 23.216 51.4724 26.4005 52.8854 26.4005V26.7087C52.5826 26.8114 52.3808 26.8114 52.078 26.8114C49.6558 26.8114 50.2613 23.1133 48.6465 23.1133H47.7382V26.1951ZM48.4447 22.8051C49.353 22.8051 50.1604 22.1888 50.1604 21.0588C50.1604 19.9288 49.4539 19.5179 48.5456 19.5179H47.8391V22.9079H48.4447V22.8051ZM55.9132 24.1406L55.2067 26.0923L56.3169 26.5032V26.8114H53.9956V26.5032L54.7021 26.0923L57.4271 19.0043H58.3354L61.0604 26.1951L61.7669 26.5032V26.8114H58.5372V26.5032L59.5465 26.1951L58.7391 24.1406H55.9132ZM58.6382 23.7297L57.7298 21.4697L57.3261 20.3397L56.9224 21.4697L56.115 23.7297H58.6382ZM70.2446 21.5724L70.1437 20.4424L69.8409 21.5724L68.1252 26.9141H67.3178L65.5011 21.5724L65.0974 20.4424L64.9965 21.5724L64.4919 26.2978L65.703 26.7087V27.0169H63.0789V26.7087L63.9872 26.2978L64.7946 19.8261L63.7854 19.5179V19.2097H66.1067L67.8224 24.2433L68.2261 25.3733L68.6298 24.2433L70.2446 19.2097H72.5659V19.5179L71.5567 19.8261L72.3641 26.4005L73.2724 26.7087V27.0169H69.9419V26.7087L70.9511 26.4005L70.2446 21.5724ZM78.5206 26.9141C76.7039 26.9141 74.7863 25.476 74.7863 22.9079C74.7863 20.3397 76.603 18.9016 78.5206 18.9016C80.3372 18.9016 82.2548 20.3397 82.2548 22.9079C82.2548 25.476 80.3372 26.9141 78.5206 26.9141ZM78.5206 19.3125C77.3095 19.3125 76.3002 20.5452 76.3002 22.9079C76.3002 25.2705 77.3095 26.5032 78.5206 26.5032C79.7317 26.5032 80.7409 25.2705 80.7409 22.9079C80.7409 20.5452 79.7317 19.3125 78.5206 19.3125ZM86.3928 26.1951L87.503 26.5032V26.8114H83.9706V26.5032L84.9798 26.1951V19.6206L83.9706 19.3125V19.0043H87.4021C88.815 19.0043 90.0261 19.5179 90.0261 20.9561C90.0261 21.9833 89.2187 22.7024 88.0076 22.9079C90.228 23.216 90.0261 26.4005 91.4391 26.4005V26.7087C91.1363 26.8114 90.9345 26.8114 90.6317 26.8114C88.2095 26.8114 88.815 23.1133 87.2002 23.1133H86.2919L86.3928 26.1951ZM87.0993 22.8051C88.0076 22.8051 88.815 22.1888 88.815 21.0588C88.815 19.9288 88.1085 19.5179 87.2002 19.5179H86.4937V22.9079H87.0993V22.8051ZM93.9622 19.6206L92.953 19.3125V19.0043H96.2835V19.3125L95.2743 19.6206V26.1951L96.2835 26.5032V26.8114H92.953V26.5032L93.9622 26.1951V19.6206ZM99.715 24.1406L99.0085 26.0923L100.119 26.5032V26.8114H97.7974V26.5032L98.5039 26.0923L101.229 19.0043H102.137L104.862 26.1951L105.569 26.5032V26.8114H102.339V26.5032L103.348 26.1951L102.541 24.1406H99.715ZM102.44 23.7297L101.532 21.4697L101.128 20.3397L100.724 21.4697L99.9169 23.7297H102.44ZM13.6252 14.4844C13.2215 14.4844 12.9187 14.4844 12.515 14.5871C11.8085 14.4844 11.1021 14.4844 10.2947 14.5871C9.89095 14.5871 9.58817 14.4844 9.18447 14.4844C4.54188 14.4844 0.807617 18.2852 0.807617 23.0106C0.807617 27.7359 4.54188 31.5368 9.18447 31.5368C9.58817 31.5368 9.89095 31.5368 10.2947 31.4341C11.0011 31.5368 11.7076 31.5368 12.515 31.4341C12.9187 31.4341 13.2215 31.5368 13.6252 31.5368C18.2678 31.5368 22.0021 27.7359 22.0021 23.0106C21.9011 18.2852 18.1669 14.4844 13.6252 14.4844ZM10.0928 15.2035C5.95484 17.1552 4.03725 22.1888 5.95484 26.4005C6.76225 28.2496 8.27614 29.7905 10.0928 30.6123C5.95484 29.8932 3.12891 25.7842 3.83539 21.5724C4.44095 18.3879 6.9641 15.8198 10.0928 15.2035ZM11.4048 15.4089C15.4419 16.6416 17.7632 20.9561 16.5521 25.1678C15.8456 27.7359 13.8271 29.6877 11.4048 30.4068C7.3678 29.1741 5.04651 24.8596 6.25762 20.6479C6.9641 18.1825 8.88169 16.2307 11.4048 15.4089ZM12.6159 30.715C16.8548 28.7632 18.6715 23.8324 16.8548 19.5179C16.0474 17.6689 14.5335 16.128 12.6159 15.2035C16.8548 15.9225 19.6808 19.8261 18.9743 24.1406C18.5706 27.5305 15.9465 30.0986 12.6159 30.715ZM1.5141 22.9079C1.5141 19.107 4.2391 15.8198 7.97336 15.2035C3.73447 17.1552 1.9178 22.0861 3.73447 26.4005C4.6428 28.2496 6.15669 29.7905 8.07428 30.715C4.34002 30.0986 1.5141 26.8114 1.5141 22.9079ZM14.9372 30.6123C19.0752 28.6605 20.9928 23.6269 19.0752 19.4152C18.2678 17.5661 16.7539 16.0253 14.9372 15.2035C19.0752 15.9225 21.9011 20.0315 21.1947 24.2433C20.5891 27.5305 18.0659 30.0986 14.9372 30.6123Z" fill="#231F20"/>
<path d="M11.7079 27.1196C12.6163 27.1196 13.5246 26.9141 14.332 26.5032V24.7569H14.0292L13.02 26.606C12.7172 26.7087 12.3135 26.7087 12.0107 26.7087C10.295 26.7087 9.18479 25.3733 9.18479 22.9079C9.18479 20.4424 10.295 19.107 12.0107 19.107C12.4144 19.107 12.7172 19.107 13.1209 19.2097L14.0292 20.9561H14.332V19.2097C13.5246 18.7988 12.6163 18.5934 11.7079 18.5934C9.58849 18.5934 7.6709 19.9288 7.6709 22.8051C7.6709 25.6814 9.58849 27.1196 11.7079 27.1196ZM43.8024 33.7967C43.8024 34.2076 43.4996 34.6185 43.0959 34.6185C42.6922 34.6185 42.2885 34.3104 42.2885 33.8995C42.2885 33.8995 42.2885 33.8995 42.2885 33.7967V32.6668C42.2885 32.2559 42.5913 31.845 42.995 31.845C43.3987 31.845 43.8024 32.1531 43.8024 32.564C43.8024 32.564 43.8024 32.564 43.8024 32.6668V32.7695H43.3987V32.6668C43.3987 32.4613 43.1968 32.2559 42.995 32.2559C42.7931 32.2559 42.5913 32.4613 42.5913 32.6668V33.7967C42.5913 34.0022 42.6922 34.2076 42.995 34.3104C43.1968 34.3104 43.3987 34.1049 43.3987 33.8995V33.7967H43.8024ZM49.1515 32.6668V33.7967C49.1515 34.2076 48.7478 34.6185 48.344 34.6185C47.9403 34.6185 47.5366 34.2076 47.5366 33.7967V32.6668C47.5366 32.2559 47.9403 31.845 48.344 31.845C48.7478 31.845 49.1515 32.1531 49.1515 32.6668ZM47.8394 32.6668V33.7967C47.8394 34.0022 48.0413 34.2076 48.2431 34.2076C48.445 34.2076 48.6468 34.0022 48.6468 33.7967V32.6668C48.6468 32.4613 48.445 32.2559 48.2431 32.2559C48.0413 32.2559 47.8394 32.3586 47.8394 32.6668ZM53.3903 34.2076H54.3996V34.5158H53.0876V31.845H53.4913L53.3903 34.2076ZM58.7394 34.2076H59.7487V34.5158H58.4366V31.845H58.8403L58.7394 34.2076ZM63.9876 32.2559V33.0777H64.8959V33.3858H63.9876V34.2076H64.9968V34.5158H63.5839V31.845H64.9968V32.1531C64.9968 32.2559 63.9876 32.2559 63.9876 32.2559ZM70.3459 33.7967C70.3459 34.2076 70.0431 34.6185 69.5385 34.6185C69.1348 34.6185 68.7311 34.3104 68.7311 33.7967V32.6668C68.7311 32.2559 69.0339 31.845 69.5385 31.845C69.9422 31.845 70.3459 32.1531 70.3459 32.6668V32.7695H69.9422V32.6668C69.9422 32.4613 69.7403 32.2559 69.5385 32.2559C69.3366 32.2559 69.1348 32.4613 69.1348 32.6668C69.1348 32.6668 69.1348 32.6668 69.1348 32.7695V33.8995C69.1348 34.1049 69.2357 34.3104 69.5385 34.4131C69.7403 34.4131 69.9422 34.2076 69.9422 34.0022V33.8995H70.3459V33.7967ZM75.695 32.2559H74.9885V34.5158H74.6857V32.2559H73.9792V31.845H75.695V32.2559ZM80.3376 32.2559V34.2076H80.8422V34.5158H79.4292V34.2076H79.9339V32.2559H79.4292V31.845H80.8422V32.1531H80.3376V32.2559ZM86.2922 32.6668V33.7967C86.2922 34.2076 85.8885 34.6185 85.4848 34.6185C85.0811 34.6185 84.6774 34.2076 84.6774 33.7967V32.6668C84.6774 32.2559 85.0811 31.845 85.4848 31.845C85.8885 31.845 86.2922 32.1531 86.2922 32.6668ZM85.0811 32.6668V33.7967C85.0811 34.0022 85.2829 34.2076 85.4848 34.2076C85.6866 34.2076 85.8885 34.0022 85.8885 33.7967V32.6668C85.8885 32.4613 85.6866 32.2559 85.4848 32.2559C85.2829 32.2559 85.0811 32.3586 85.0811 32.6668ZM91.5403 31.845V34.5158H91.2376L90.4302 32.6668V34.5158H90.0264V31.845H90.3292L91.1366 33.694V31.845H91.5403ZM105.67 15.3062C105.771 15.1007 105.872 14.998 105.973 14.8953C106.376 14.4844 106.881 14.3816 107.386 14.5871C107.588 14.6898 107.688 14.7926 107.789 14.8953C107.89 14.998 107.991 15.2035 108.092 15.3062C108.193 15.6144 108.193 16.0253 108.092 16.3334C107.991 16.5389 107.89 16.6416 107.789 16.7443C107.688 16.8471 107.588 16.9498 107.386 17.0525C107.083 17.1552 106.679 17.1552 106.376 17.0525C106.175 16.9498 106.074 16.8471 105.973 16.7443C105.872 16.6416 105.771 16.4362 105.67 16.3334C105.569 16.0253 105.569 15.6144 105.67 15.3062ZM105.872 16.2307C105.973 16.3334 105.973 16.4362 106.074 16.5389C106.175 16.6416 106.276 16.7443 106.376 16.7443C106.679 16.8471 106.982 16.8471 107.184 16.7443C107.285 16.6416 107.386 16.6416 107.487 16.5389C107.588 16.4362 107.688 16.3334 107.688 16.2307C107.789 16.128 107.789 15.9225 107.789 15.8198C107.789 15.7171 107.789 15.5116 107.688 15.4089C107.588 15.3062 107.588 15.1007 107.487 14.998C107.386 14.8953 107.285 14.7926 107.184 14.7926C106.881 14.6898 106.578 14.6898 106.376 14.7926C106.276 14.8953 106.175 14.8953 106.074 14.998C105.973 15.1007 105.872 15.2035 105.872 15.4089C105.771 15.5116 105.771 15.7171 105.771 15.8198C105.771 16.0253 105.771 16.128 105.872 16.2307ZM106.578 16.5389H106.276V14.998H106.78C106.881 14.998 107.083 14.998 107.184 15.1007C107.285 15.2035 107.386 15.3062 107.386 15.4089C107.386 15.5116 107.386 15.6144 107.285 15.6144C107.184 15.7171 107.184 15.7171 107.083 15.7171L107.386 16.4362H107.083L106.78 15.8198H106.477L106.578 16.5389ZM106.881 15.7171H106.982H107.083C107.083 15.7171 107.083 15.7171 107.184 15.6144V15.5116C107.184 15.4089 107.184 15.4089 107.083 15.3062C106.982 15.3062 106.881 15.2035 106.881 15.2035H106.679V15.6144L106.881 15.7171Z" fill="#231F20"/>
</svg>
