<svg width="111" height="49" viewBox="0 0 111 49" fill="none" xmlns="http://www.w3.org/2000/svg">
<path fill-rule="evenodd" clip-rule="evenodd" d="M11.5115 16.0254H16.5476H19.3226L19.631 19.7235H19.1171C19.1171 19.6208 19.1171 19.6208 19.1171 19.5181C19.0143 18.6962 18.8087 18.1826 18.3976 17.669C17.9865 17.2581 17.4726 17.0526 16.856 16.9499H16.3421H11.5115V22.1889H15.5199C16.3421 22.0862 16.7532 21.6753 16.856 20.9562C16.856 20.9562 16.856 20.7508 16.856 20.4426H17.4726V24.9625H16.9587C16.9587 24.6543 16.9587 24.5516 16.9587 24.4489C16.856 23.6271 16.4449 23.2162 15.6226 23.2162H11.6143V29.7906H17.2671H17.781C18.9115 29.6879 19.631 28.9688 19.7337 27.4279C19.7337 27.2225 19.7337 27.1197 19.7337 27.1197H20.2476V30.8178H17.1643H11.5115H7.81152V30.3042C8.11986 30.3042 8.22264 30.3042 8.32541 30.3042C8.73652 30.2015 9.04486 30.0988 9.25041 29.996C9.45597 29.7906 9.55875 29.5851 9.55875 29.1742V17.7717C9.55875 17.3608 9.45597 17.1554 9.25041 16.9499C9.04486 16.7445 8.73652 16.6417 8.32541 16.6417C8.32541 16.6417 8.11986 16.6417 7.81152 16.6417V16.1281H11.5115V16.0254Z" fill="#896A29"/>
<path fill-rule="evenodd" clip-rule="evenodd" d="M25.9001 19.6206V20.0315C25.6946 20.0315 25.489 20.0315 25.2835 20.1342C25.1807 20.237 25.0779 20.3397 25.0779 20.4424C25.0779 20.5451 25.1807 20.7506 25.489 21.0588L25.6946 21.3669C25.7974 21.5724 26.1057 21.8806 26.414 22.2915C26.7224 22.7024 27.2362 23.3187 27.6474 23.9351L29.8057 21.4697C30.114 21.1615 30.3196 20.956 30.3196 20.8533C30.4224 20.7506 30.5251 20.5451 30.5251 20.4424C30.5251 20.3397 30.4224 20.237 30.3196 20.1342C30.114 20.0315 30.0112 20.0315 29.7029 20.0315V19.6206H32.9918V20.0315C32.3751 20.1342 31.7585 20.4424 31.1418 21.1615C29.0862 23.4214 28.0585 24.6541 28.0585 24.6541L30.7307 28.0441C30.7307 28.0441 30.8335 28.1468 31.039 28.455C31.2446 28.6604 31.3474 28.8659 31.4501 28.9686C31.5529 29.0713 31.6557 29.2768 31.8612 29.4822C32.0668 29.6877 32.2724 29.8931 32.3751 29.9959C32.5807 30.0986 32.6835 30.2013 32.9918 30.304C33.1974 30.4068 33.4029 30.4068 33.6085 30.4068V30.8177H29.4974V30.4068C29.7029 30.4068 29.9085 30.4068 30.0112 30.304C30.114 30.2013 30.2168 30.0986 30.2168 29.9959C30.2168 29.7904 30.114 29.585 29.8057 29.2768C29.2918 28.6604 28.8807 28.1468 28.5724 27.7359C28.264 27.325 28.0585 27.1196 27.9557 27.0168C27.8529 26.9141 27.8529 26.8114 27.7501 26.7087C27.6474 26.6059 27.5446 26.5032 27.5446 26.4005C27.4418 26.2978 27.339 26.0923 27.0307 25.7841L24.0501 29.1741C23.9474 29.3795 23.7418 29.4822 23.5362 29.6877C23.4335 29.7904 23.4335 29.8931 23.4335 29.9959C23.4335 30.0986 23.5362 30.2013 23.639 30.304C23.8446 30.4068 23.9474 30.4068 24.2557 30.4068V30.8177H20.9668V30.4068C21.1724 30.4068 21.3779 30.304 21.6862 30.2013C21.8918 30.0986 22.2001 29.8931 22.4057 29.6877C22.6112 29.4822 22.8168 29.2768 23.0224 29.1741C23.1251 29.0713 23.3307 28.7632 23.639 28.5577C24.3585 27.8386 25.2835 26.7087 26.6196 25.1678L24.0501 21.7778C23.8446 21.5724 23.7418 21.3669 23.639 21.2642C23.5362 21.1615 23.3307 20.956 23.1251 20.7506C22.9196 20.5451 22.714 20.4424 22.4057 20.3397C22.2001 20.237 21.8918 20.1342 21.5835 20.1342V19.7233H25.9001V19.6206Z" fill="#896A29"/>
<path fill-rule="evenodd" clip-rule="evenodd" d="M37.4117 25.1681H39.1589C39.5701 25.1681 39.8784 25.0654 40.0839 24.9626C40.3923 24.8599 40.5978 24.6545 40.7006 24.3463C40.9062 24.1408 41.0089 23.8326 41.0089 23.6272C41.1117 23.319 41.1117 23.1136 41.1117 22.8054C41.1117 22.4972 41.1117 22.2918 41.0089 21.9836C40.9062 21.6754 40.8034 21.47 40.5978 21.2645C40.3923 21.0591 40.1867 20.8536 39.9812 20.6482C39.6728 20.5454 39.3645 20.4427 39.0562 20.4427H37.3089V25.1681H37.4117ZM38.8506 19.7236C39.4673 19.7236 39.9812 19.8264 40.3923 19.9291C40.9062 20.0318 41.2145 20.2373 41.5228 20.4427C41.8312 20.6482 42.0367 20.8536 42.2423 21.1618C42.4478 21.47 42.5506 21.6754 42.6534 21.9836C42.7562 22.2918 42.7562 22.4972 42.7562 22.8054C42.7562 23.1136 42.6534 23.4217 42.5506 23.8326C42.4478 24.1408 42.1395 24.5517 41.9339 24.8599C41.6256 25.1681 41.2145 25.4763 40.7006 25.6817C40.1867 25.8872 39.5701 25.9899 38.8506 25.9899H37.4117C37.4117 26.8117 37.4117 28.0444 37.4117 29.688C37.4117 29.9962 37.5145 30.2016 37.6173 30.3043C37.7201 30.4071 38.0284 30.5098 38.3367 30.5098C38.3367 30.5098 38.5423 30.5098 38.7478 30.5098V30.818H34.6367V30.4071C34.8423 30.4071 34.945 30.4071 35.0478 30.4071C35.3562 30.4071 35.6645 30.3043 35.7673 30.2016C35.8701 30.0989 35.9728 29.8934 35.9728 29.5853V20.9563C35.9728 20.6482 35.8701 20.4427 35.7673 20.34C35.6645 20.2373 35.3562 20.1345 35.0478 20.1345C35.0478 20.1345 34.9451 20.1345 34.6367 20.1345V19.7236H38.8506Z" fill="#896A29"/>
<path fill-rule="evenodd" clip-rule="evenodd" d="M47.1753 19.7231V20.134C46.9698 20.134 46.867 20.134 46.7642 20.134C46.4559 20.134 46.2503 20.2368 46.0448 20.3395C45.942 20.4422 45.8392 20.6477 45.8392 20.9558V30.0984H49.8475H50.2587C50.6698 30.0984 51.0809 29.893 51.3892 29.5848C51.6975 29.2766 51.9031 28.8657 51.9031 28.3521V28.2493C51.9031 28.1466 51.9031 28.1466 51.9031 28.1466H52.417L52.2114 30.9202H50.1559H45.942H43.167V30.5093C43.3725 30.5093 43.4753 30.5093 43.5781 30.5093C43.8864 30.5093 44.092 30.4066 44.2975 30.3039C44.4003 30.2011 44.5031 29.9957 44.5031 29.6875V21.0586C44.5031 20.7504 44.4003 20.5449 44.2975 20.4422C44.1948 20.3395 43.8864 20.2368 43.5781 20.2368C43.5781 20.2368 43.4753 20.2368 43.167 20.2368V19.8259H47.1753V19.7231Z" fill="#896A29"/>
<path fill-rule="evenodd" clip-rule="evenodd" d="M52.3143 19.8261C51.5948 19.9289 50.9782 20.3398 50.5671 21.0588C50.1559 21.7779 50.0532 22.5997 50.1559 23.5242C50.2587 24.1406 50.4643 24.6542 50.7726 25.1678C51.0809 25.6815 51.4921 25.9897 52.0059 26.2978C52.5198 26.5033 52.9309 26.606 53.4448 26.606C53.9587 26.5033 54.3698 26.2978 54.7809 25.9896C55.1921 25.6815 55.3976 25.1678 55.6032 24.6542C55.8087 24.1406 55.8087 23.5242 55.7059 22.9079C55.6032 22.2915 55.3976 21.7779 55.0893 21.367C54.7809 20.8534 54.3698 20.5452 53.9587 20.237C53.5476 19.9289 53.1365 19.8261 52.6226 19.8261C52.4171 19.8261 52.3143 19.8261 52.3143 19.8261ZM55.7059 20.4425C56.0143 20.7507 56.3226 21.1616 56.5282 21.6752C56.7337 22.1888 56.8365 22.7024 56.8365 23.2161C56.8365 23.7297 56.7337 24.2433 56.5282 24.7569C56.3226 25.2706 56.0143 25.6815 55.7059 25.9896C55.3976 26.2978 54.9865 26.606 54.4726 26.8115C53.9587 27.0169 53.4448 27.1196 52.9309 27.1196C52.4171 27.1196 51.9032 27.0169 51.3893 26.8115C50.8754 26.606 50.4643 26.2978 50.1559 25.9896C49.8476 25.6815 49.5393 25.2706 49.3337 24.7569C49.1282 24.2433 49.0254 23.7297 49.0254 23.2161C49.0254 22.7024 49.1282 22.1888 49.3337 21.6752C49.5393 21.1616 49.8476 20.7507 50.1559 20.4425C50.4643 20.1343 50.9782 19.8261 51.3893 19.6207C51.9032 19.4152 52.4171 19.3125 52.9309 19.3125C53.4448 19.3125 53.9587 19.4152 54.4726 19.6207C54.8837 19.8261 55.2948 20.1343 55.7059 20.4425Z" fill="#896A29"/>
<path fill-rule="evenodd" clip-rule="evenodd" d="M59.7145 25.0649H61.0506C61.77 25.0649 62.3867 24.8594 62.7978 24.3458C63.3117 23.9349 63.5173 23.4213 63.5173 22.8049C63.5173 22.4967 63.5173 22.2913 63.4145 21.9831C63.3117 21.6749 63.2089 21.4695 63.0034 21.264C62.7978 21.0586 62.5923 20.8531 62.3867 20.6477C62.0784 20.5449 61.77 20.4422 61.4617 20.4422H59.7145V25.0649ZM61.1534 19.7231C61.8728 19.7231 62.4895 19.8259 63.1061 20.0313C63.7228 20.2368 64.1339 20.4422 64.4423 20.7504C64.7506 21.0586 64.9561 21.3668 65.1617 21.7777C65.2645 22.0858 65.3673 22.4967 65.3673 22.8049C65.3673 23.524 65.0589 24.0376 64.545 24.5512C64.0311 25.0649 63.2089 25.373 62.2839 25.4758C62.4895 25.6812 62.9006 26.1948 63.5173 26.9139C64.1339 27.633 64.6478 28.2493 64.9561 28.6602C65.3673 29.1739 65.7784 29.5848 66.1895 29.893C66.6006 30.2011 67.0117 30.4066 67.4228 30.4066V30.8175H63.3117V30.4066C63.5173 30.4066 63.7228 30.4066 63.8256 30.3039C63.9284 30.2011 64.0311 30.0984 64.0311 29.9957C64.0311 29.893 63.9284 29.6875 63.7228 29.3793C63.62 29.2766 63.5173 29.0712 63.1061 28.6602C63.0034 28.5575 62.9006 28.3521 62.695 28.1466C62.4895 27.9412 62.1811 27.5303 61.8728 27.2221C61.5645 26.8112 61.2561 26.503 61.1534 26.2976C61.1534 26.2976 61.1534 26.2976 61.1534 26.1948L61.0506 26.0921C60.845 25.8867 60.5367 25.7839 60.1256 25.7839V29.6875C60.1256 29.893 60.2284 30.0984 60.2284 30.2011C60.3311 30.3039 60.4339 30.4066 60.6395 30.4066C60.7423 30.4066 60.9478 30.5093 61.0506 30.5093C61.0506 30.5093 61.2561 30.5093 61.4617 30.5093V30.9202H59.8173H57.3506V30.5093C57.5561 30.5093 57.6589 30.5093 57.7617 30.5093C58.07 30.5093 58.3784 30.4066 58.4811 30.3039C58.5839 30.2011 58.6867 29.9957 58.6867 29.6875V21.0586C58.6867 20.7504 58.5839 20.5449 58.4811 20.4422C58.3784 20.3395 58.07 20.2368 57.7617 20.2368C57.7617 20.2368 57.6589 20.2368 57.3506 20.2368V19.8259H61.1534V19.7231Z" fill="#896A29"/>
<path fill-rule="evenodd" clip-rule="evenodd" d="M70.7113 19.7231H74.5141H76.5696L76.7752 22.4967H76.3641V22.394C76.2613 21.7777 76.0557 21.3667 75.7474 21.0586C75.4391 20.7504 75.0279 20.5449 74.6168 20.5449H74.2057H70.6085V24.5512H73.5891C74.2057 24.4485 74.5141 24.1403 74.6168 23.6267C74.6168 23.6267 74.6168 23.4213 74.6168 23.2158H75.028V26.6057H74.6168C74.6168 26.4003 74.6168 26.2976 74.6168 26.1948C74.5141 25.5785 74.2057 25.2703 73.5891 25.2703H70.6085V30.2011H75.028H75.4391C76.2613 30.2011 76.7752 29.5848 76.9807 28.4548C76.9807 28.3521 76.9807 28.2493 76.9807 28.1466H77.3918V30.9202H75.028H70.8141H68.0391V30.5093C68.2446 30.5093 68.3474 30.5093 68.4502 30.5093C68.7585 30.5093 68.9641 30.4066 69.1696 30.3039C69.2724 30.2011 69.3752 29.9957 69.3752 29.6875V21.0586C69.3752 20.7504 69.2724 20.5449 69.1696 20.4422C69.0668 20.3395 68.7585 20.2368 68.4502 20.2368C68.4502 20.2368 68.3474 20.2368 68.0391 20.2368V19.8259H70.7113V19.7231Z" fill="#896A29"/>
<path fill-rule="evenodd" clip-rule="evenodd" d="M82.2227 25.8869H86.0255C85.4088 24.4487 84.7921 23.0105 84.1755 21.5724C83.8671 22.2915 83.2505 23.7296 82.2227 25.8869ZM84.9977 19.7233L88.6977 28.2495C88.8005 28.455 88.9032 28.5577 88.9032 28.6604C88.9032 28.7632 89.006 28.8659 89.1088 29.0713C89.2116 29.2768 89.3144 29.3795 89.3144 29.4822C89.4171 29.585 89.5199 29.6877 89.6227 29.7904C89.7255 29.8931 89.8282 29.9959 89.931 30.0986C90.0338 30.2013 90.1366 30.2013 90.3421 30.304C90.4449 30.4068 90.6505 30.4068 90.7532 30.4068V30.8177H89.931H88.2866H87.0532V30.4068C87.2588 30.4068 87.4644 30.304 87.5671 30.304C87.6699 30.2013 87.7727 30.0986 87.7727 29.9959C87.7727 29.8931 87.7727 29.8931 87.7727 29.7904C87.6699 29.4822 87.5671 29.3795 87.5671 29.1741C86.9505 27.6332 86.5394 26.8114 86.4366 26.6059H82.0171L80.5783 29.7904C80.5783 29.8931 80.4755 29.9959 80.5783 29.9959C80.5783 30.0986 80.681 30.2013 80.7838 30.304C80.8866 30.4068 81.0921 30.4068 81.2977 30.4068V30.8177H78.4199V30.4068C78.5227 30.4068 78.6255 30.304 78.7283 30.304C78.831 30.304 78.9338 30.2013 79.0366 30.2013C79.1394 30.2013 79.2421 30.0986 79.3449 29.9959C79.4477 29.8931 79.5505 29.7904 79.5505 29.7904C79.6533 29.6877 79.6532 29.6877 79.756 29.585C79.8588 29.4822 79.8588 29.3795 79.9616 29.2768C79.9616 29.1741 80.0644 29.1741 80.1671 28.9686C80.2699 28.7632 80.2699 28.7632 80.2699 28.6604C80.2699 28.6604 80.3727 28.455 80.3727 28.3523C80.4755 28.1468 80.4755 28.0441 80.4755 28.0441C80.681 27.5305 81.1949 26.5032 81.8116 24.9623C82.531 23.5242 82.9421 22.2915 83.3532 21.4697C83.7644 20.6479 83.9699 20.0315 84.0727 19.6206H84.9977V19.7233Z" fill="#896A29"/>
<path fill-rule="evenodd" clip-rule="evenodd" d="M94.659 19.6206L101.031 28.3523V21.0588C101.031 20.4424 100.62 20.1342 100.106 20.0315C100.106 20.0315 100.003 20.0315 99.6951 20.0315V19.6206H103.087V20.0315C102.881 20.0315 102.778 20.0315 102.676 20.0315C102.059 20.1342 101.751 20.4424 101.751 21.0588V29.3795V30.8177H101.031C100.415 29.8931 99.284 28.455 97.6396 26.2978C95.9951 24.1405 94.7618 22.3942 93.8368 21.1615V29.3795C93.9396 29.9959 94.2479 30.304 94.7618 30.4068C94.7618 30.4068 94.9674 30.4068 95.1729 30.4068V30.8177H91.7812V30.4068C91.9868 30.4068 92.0896 30.4068 92.1924 30.4068C92.809 30.304 93.1174 29.9959 93.1174 29.3795V21.1615C93.1174 20.5451 92.7062 20.237 92.1924 20.1342C92.1924 20.1342 92.0896 20.1342 91.7812 20.1342V19.7233H94.659V19.6206Z" fill="#896A29"/>
<path fill-rule="evenodd" clip-rule="evenodd" d="M103.703 29.8929C103.806 29.8929 104.011 29.8929 104.011 29.6875C104.011 29.5847 103.909 29.5847 103.806 29.5847H103.6V29.8929H103.703ZM103.395 29.482H103.806C104.011 29.482 104.114 29.5847 104.114 29.7902C104.114 29.9956 104.011 30.0984 103.806 30.0984L104.114 30.5093H104.011L103.703 30.0984H103.498V30.5093H103.395V29.482ZM104.423 29.9956C104.423 29.5847 104.114 29.2766 103.703 29.2766C103.292 29.2766 102.984 29.5847 102.984 29.9956C102.984 30.4065 103.292 30.7147 103.703 30.7147C104.114 30.7147 104.423 30.4065 104.423 29.9956ZM103.703 29.1738C104.217 29.1738 104.525 29.5847 104.525 29.9956C104.525 30.5093 104.114 30.8174 103.703 30.8174C103.189 30.8174 102.881 30.4065 102.881 29.9956C102.881 29.482 103.292 29.1738 103.703 29.1738Z" fill="#896A29"/>
<path fill-rule="evenodd" clip-rule="evenodd" d="M2.77533 39.9601V9.86161H43.9892V8.62891H1.54199V41.1928H25.0781V39.9601H2.77533Z" fill="#896A29"/>
<path fill-rule="evenodd" clip-rule="evenodd" d="M109.459 8.62891H67.0117V9.86161H108.226V39.9601H85.9228V41.1928H109.459V8.62891Z" fill="#896A29"/>
<path fill-rule="evenodd" clip-rule="evenodd" d="M26.3115 44.0691H84.6892V37.0838H26.3115V44.0691ZM26.9281 43.4527H84.0726V37.7001H26.9281V43.4527ZM81.9142 39.6519C81.9142 38.9328 81.6059 38.5219 80.7837 38.5219C79.7559 38.5219 79.6531 39.241 79.6531 39.6519C79.6531 41.0901 81.5031 40.4737 81.5031 41.6037C81.5031 42.0146 81.1948 42.3228 80.7837 42.3228C80.0642 42.3228 80.0642 41.8091 80.0642 41.3982H79.5503C79.5503 42.22 79.8587 42.7337 80.7837 42.7337C81.2976 42.7337 82.017 42.4255 82.017 41.501C82.017 40.0628 80.167 40.6792 80.167 39.5492C80.167 39.1383 80.3726 38.9328 80.7837 38.9328C81.2976 38.9328 81.4003 39.241 81.4003 39.6519H81.9142ZM77.8031 39.0356H78.8309V38.6247H76.3642V39.0356H77.392V42.6309H77.9059V39.0356H77.8031ZM73.692 39.0356H74.3087C74.7198 39.0356 75.0281 39.241 75.0281 39.6519C75.0281 40.4737 74.5142 40.4737 74.2059 40.4737H73.692V39.0356ZM73.1781 42.6309H73.692V40.8846H74.3087C74.5142 40.8846 74.8226 40.8846 74.9253 41.501V42.1173C74.9253 42.3228 74.9253 42.6309 75.0281 42.7337H75.6448C75.542 42.6309 75.4392 42.5282 75.4392 42.1173V41.3982C75.4392 41.0901 75.2337 40.7819 74.9253 40.6792C75.3365 40.5764 75.542 40.0628 75.542 39.6519C75.542 39.0356 75.1309 38.6247 74.5142 38.6247H73.1781V42.6309ZM70.7115 38.9328C71.4309 38.9328 71.4309 39.6519 71.4309 40.5764C71.4309 41.501 71.3281 42.22 70.7115 42.22C69.992 42.22 69.992 41.501 69.992 40.5764C69.992 39.6519 70.0948 38.9328 70.7115 38.9328ZM70.7115 38.5219C69.5809 38.5219 69.4781 39.5492 69.4781 40.5764C69.4781 41.6037 69.6837 42.6309 70.7115 42.6309C71.842 42.6309 71.9448 41.6037 71.9448 40.5764C72.0476 39.5492 71.842 38.5219 70.7115 38.5219ZM68.3476 39.6519C68.3476 38.9328 68.0392 38.5219 67.217 38.5219C66.1892 38.5219 66.0865 39.241 66.0865 39.6519C66.0865 41.0901 67.9365 40.4737 67.9365 41.6037C67.9365 42.0146 67.6281 42.3228 67.217 42.3228C66.4976 42.3228 66.4976 41.8091 66.4976 41.3982H65.9837C65.9837 42.22 66.292 42.7337 67.217 42.7337C67.7309 42.7337 68.4503 42.4255 68.4503 41.501C68.4503 40.0628 66.6003 40.6792 66.6003 39.5492C66.6003 39.1383 66.8059 38.9328 67.217 38.9328C67.7309 38.9328 67.8337 39.241 67.8337 39.6519H68.3476ZM63.0031 42.6309H65.1615V42.1173H63.517V40.6792H64.9559V40.2683H63.517V39.0356H65.0587V38.6247H63.0031V42.6309ZM60.0226 39.0356H60.6392C61.0503 39.0356 61.3587 39.241 61.3587 39.6519C61.3587 40.4737 60.8448 40.4737 60.5365 40.4737H60.0226V39.0356ZM59.5087 42.6309H60.0226V40.8846H60.6392C60.8448 40.8846 61.1531 40.8846 61.2559 41.501V42.1173C61.2559 42.3228 61.2559 42.6309 61.3587 42.7337H61.9753C61.8726 42.6309 61.7698 42.5282 61.7698 42.1173V41.3982C61.7698 41.0901 61.5642 40.7819 61.2559 40.6792C61.667 40.5764 61.8726 40.0628 61.8726 39.6519C61.8726 39.0356 61.4615 38.6247 60.8448 38.6247H59.5087V42.6309ZM55.192 40.9873V42.5282H55.7059V40.9873L56.7337 38.5219H56.2198L55.3976 40.371L54.6781 38.5219H54.1642L55.192 40.9873ZM51.5948 39.0356H52.2115C52.6226 39.0356 52.9309 39.241 52.9309 39.6519C52.9309 40.4737 52.417 40.4737 52.1087 40.4737H51.5948V39.0356ZM51.0809 42.6309H51.5948V40.8846H52.2115C52.417 40.8846 52.7253 40.8846 52.8281 41.501V42.1173C52.8281 42.3228 52.8281 42.6309 52.9309 42.7337H53.5476C53.4448 42.6309 53.342 42.5282 53.342 42.1173V41.3982C53.342 41.0901 53.1365 40.7819 52.8281 40.6792C53.2392 40.5764 53.4448 40.0628 53.4448 39.6519C53.4448 39.0356 53.0337 38.6247 52.417 38.6247H51.0809V42.6309ZM47.9976 42.6309H50.1559V42.1173H48.5115V40.6792H49.9503V40.2683H48.5115V39.0356H50.0531V38.6247H47.9976V42.6309ZM45.4281 42.6309H46.0448L47.0726 38.6247H46.5587L45.7365 42.1173L44.9142 38.6247H44.4003L45.4281 42.6309ZM42.3448 38.9328C43.0642 38.9328 43.0642 39.6519 43.0642 40.5764C43.0642 41.501 42.9615 42.22 42.3448 42.22C41.6253 42.22 41.6253 41.501 41.6253 40.5764C41.6253 39.6519 41.7281 38.9328 42.3448 38.9328ZM42.3448 38.5219C41.2142 38.5219 41.1115 39.5492 41.1115 40.5764C41.1115 41.6037 41.317 42.6309 42.3448 42.6309C43.4753 42.6309 43.5781 41.6037 43.5781 40.5764C43.6809 39.5492 43.4753 38.5219 42.3448 38.5219ZM39.5698 41.1928C39.5698 41.7064 39.467 42.22 38.8503 42.22C38.1309 42.22 38.1309 41.501 38.1309 40.5764C38.1309 39.6519 38.2337 38.9328 38.8503 38.9328C39.3642 38.9328 39.467 39.3437 39.467 39.7546H40.0837C40.0837 38.9328 39.6726 38.5219 38.9531 38.5219C37.8226 38.5219 37.7198 39.5492 37.7198 40.5764C37.7198 41.6037 37.8226 42.6309 38.9531 42.6309C39.7753 42.6309 40.0837 41.9119 40.1865 41.1928H39.5698ZM36.4865 39.6519C36.4865 38.9328 36.1781 38.5219 35.3559 38.5219C34.3281 38.5219 34.2253 39.241 34.2253 39.6519C34.2253 41.0901 36.0753 40.4737 36.0753 41.6037C36.0753 42.0146 35.767 42.3228 35.3559 42.3228C34.6365 42.3228 34.6365 41.8091 34.6365 41.3982H34.1226C34.1226 42.22 34.4309 42.7337 35.3559 42.7337C35.8698 42.7337 36.5892 42.4255 36.5892 41.501C36.5892 40.0628 34.7392 40.6792 34.7392 39.5492C34.7392 39.1383 34.9448 38.9328 35.3559 38.9328C35.8698 38.9328 35.9726 39.241 35.9726 39.6519H36.4865ZM32.5809 42.6309H33.0948V38.6247H32.5809V42.6309ZM29.4976 39.0356H30.0115C30.9365 39.0356 30.9365 39.8574 30.9365 40.6792C30.9365 41.3982 30.8337 42.3228 30.0115 42.3228H29.4976V39.0356ZM28.9837 42.6309H30.1142C31.2448 42.6309 31.4503 41.6037 31.4503 40.5764C31.4503 39.4465 31.2448 38.5219 30.0115 38.5219H28.9837V42.6309ZM25.0781 45.3018H85.9226V35.8511H25.0781V45.3018Z" fill="#896A29"/>
<path fill-rule="evenodd" clip-rule="evenodd" d="M45.2226 13.4572H65.7781V4.93095H45.2226V13.4572ZM45.8393 12.9435H65.2643V5.5473H45.8393V12.9435ZM59.0976 11.7108H61.667V11.2999H59.6115V9.24541H61.4615V8.93724H59.6115V7.08818H61.667V6.67728H59.2004V11.7108H59.0976ZM56.4254 11.7108H56.8365V6.67728H56.4254V8.83451H54.4726V6.67728H54.0615V11.7108H54.4726V9.24541H56.4254V11.7108ZM50.567 11.7108H50.9781V7.08818H52.2115V6.67728H49.2309V7.08818H50.4643V11.7108H50.567ZM43.9893 14.7926H67.1143V3.69824H43.9893V14.7926Z" fill="#896A29"/>
</svg>
