<svg width="109" height="49" viewBox="0 0 109 49" fill="none" xmlns="http://www.w3.org/2000/svg">
<path d="M70.7489 17.4632V20.4422H73.7767V21.5722H70.7489V26.0921H69.0332V16.2305H74.5841V17.4632H70.7489Z" fill="#808285"/>
<path d="M76.603 17.8744C75.8965 17.8744 75.5938 17.5663 75.5938 16.9499C75.5938 16.3336 75.8965 16.0254 76.603 16.0254C77.3095 16.0254 77.6123 16.3336 77.6123 16.8472C77.6123 17.669 77.3095 17.8744 76.603 17.8744ZM75.6947 19.0044H77.3095V26.0925H75.6947V19.0044Z" fill="#808285"/>
<path d="M80.5396 22.7024C80.5396 24.346 81.1452 25.0651 82.8609 25.0651C83.3655 25.0651 83.7693 25.0651 84.6776 24.9624V25.7842C83.3656 26.0923 82.6591 26.1951 82.2554 26.1951C80.035 26.1951 78.9248 24.9624 78.9248 22.7024C78.9248 20.3397 80.1359 18.7988 82.1544 18.7988C83.5674 18.7988 84.5767 19.4152 84.8794 20.7506C84.9804 21.1615 85.0813 21.5724 85.0813 22.7024H80.5396ZM81.9526 19.8261C81.0442 19.8261 80.5396 20.5452 80.5396 21.8806H83.3655C83.3655 20.3397 82.9618 19.8261 81.9526 19.8261Z" fill="#808285"/>
<path d="M88.2096 26.1951C87.6041 26.1951 86.9985 26.0923 85.9893 25.7842V24.8596C86.7967 25.0651 87.3013 25.1678 87.9069 25.1678C88.7143 25.1678 89.118 24.8596 89.118 24.2433C89.118 23.8324 88.9161 23.6269 88.5124 23.4215L87.4022 22.8051C86.4939 22.3942 86.0902 21.7779 86.0902 20.8533C86.0902 19.6206 86.9985 18.7988 88.5124 18.7988C89.017 18.7988 89.5217 18.9016 90.5309 19.2097V20.1343C89.9254 20.0315 89.3198 19.9288 88.8152 19.9288C88.0078 19.9288 87.705 20.1343 87.705 20.7506C87.705 21.1615 87.9068 21.367 88.5124 21.6751L89.7235 22.2915C90.5309 22.7024 90.9346 23.216 90.9346 24.1405C90.7328 25.3733 89.7235 26.1951 88.2096 26.1951Z" fill="#808285"/>
<path d="M94.366 26.1951C92.953 26.1951 92.4484 25.6814 92.4484 24.1406V19.9288H91.54V18.9016H92.4484V17.258L94.0632 16.6416V18.9016H96.1826V19.9288H94.0632V23.8324C94.0632 24.6542 94.366 24.9624 95.1734 24.9624C95.4762 24.9624 95.8799 24.9624 96.1826 24.8596V25.7842C95.1734 26.0923 94.7697 26.1951 94.366 26.1951Z" fill="#808285"/>
<path d="M101.128 26.0923V25.6814C100.119 26.0923 99.7152 26.1951 99.1097 26.1951C97.7976 26.1951 96.9902 25.3733 96.9902 24.1405C96.9902 22.9078 97.6967 22.1888 99.1097 21.9833C99.7152 21.8806 100.321 21.8806 101.027 21.8806V21.1615C101.027 20.3397 100.724 20.0315 99.7152 20.0315C99.1097 20.0315 98.2013 20.1343 97.4949 20.237V19.3125C98.8069 19.0043 99.6143 18.7988 100.22 18.7988C100.926 18.7988 101.633 19.0043 101.936 19.3125C102.339 19.7234 102.44 20.237 102.44 21.2642V25.9896H101.128V26.0923ZM101.128 22.7024C100.321 22.7024 100.22 22.7024 99.8162 22.8051C99.1097 22.9078 98.706 23.3187 98.706 23.9351C98.706 24.6542 99.1097 25.0651 100.018 25.0651C100.321 25.0651 100.724 25.0651 101.128 24.9624V22.7024Z" fill="#808285"/>
<path d="M45.7194 38.1111L44.7101 35.0294H41.3796L40.3703 38.1111H38.8564L42.2879 28.2495H44.1046L47.4351 38.1111H45.7194ZM42.9944 29.7904L41.6824 33.8994H44.3064L42.9944 29.7904Z" fill="#808285"/>
<path d="M61.6656 34.7212C61.6656 36.4676 62.2712 37.0839 63.9869 37.0839C64.4915 37.0839 64.8952 37.0839 65.8036 36.9812V37.9057C64.4915 38.2139 63.785 38.3166 63.3813 38.3166C61.161 38.3166 60.0508 37.0839 60.0508 34.824C60.0508 32.4613 61.2619 30.9204 63.2804 30.9204C64.6934 30.9204 65.7026 31.5368 66.0054 32.8722C66.1063 33.2831 66.2073 33.694 66.2073 34.824H61.6656V34.7212ZM63.1795 31.8449C62.2712 31.8449 61.7665 32.564 61.7665 33.8994H64.5924C64.4915 32.3586 64.1887 31.8449 63.1795 31.8449Z" fill="#808285"/>
<path d="M70.1436 32.1528C69.8408 32.1528 69.4371 32.2555 69.1343 32.2555V38.0082H67.5195V30.9201H69.1343V31.4337C69.8408 31.0228 70.6482 30.8174 70.951 30.8174C71.2538 30.8174 71.4556 30.9201 71.7584 31.0228V32.461C71.2538 32.2555 70.7492 32.1528 70.1436 32.1528Z" fill="#808285"/>
<path d="M73.4741 29.893C72.7676 29.893 72.4648 29.5848 72.4648 28.9685C72.4648 28.3521 72.7676 28.0439 73.4741 28.0439C74.1806 28.0439 74.4834 28.3521 74.4834 28.8657C74.4834 29.6876 74.1806 29.893 73.4741 29.893ZM72.6667 31.023H74.2815V38.111H72.6667V31.023Z" fill="#808285"/>
<path d="M79.0255 38.2139C77.007 38.2139 75.7959 36.9812 75.7959 34.7212C75.7959 32.3586 77.2089 30.9204 79.4292 30.9204C79.9339 30.9204 80.4385 31.0231 81.3468 31.3313V32.2558C80.8422 32.1531 80.3376 32.0504 79.8329 32.0504C78.319 32.0504 77.5116 32.8722 77.5116 34.6185C77.5116 36.3649 78.2181 37.0839 79.9339 37.0839C80.3376 37.0839 81.044 36.9812 81.4477 36.9812V37.9057C80.0348 38.1112 79.5302 38.2139 79.0255 38.2139Z" fill="#808285"/>
<path d="M86.2923 38.1109V37.7C85.283 38.1109 84.8793 38.2136 84.2737 38.2136C82.9617 38.2136 82.1543 37.3918 82.1543 36.1591C82.1543 34.9264 82.8608 34.2073 84.2737 34.0019C84.8793 33.8991 85.4848 33.8991 86.1913 33.8991V33.1801C86.1913 32.3583 85.7876 32.0501 84.8793 32.0501C84.2737 32.0501 83.3654 32.1528 82.6589 32.2555V31.331C83.971 31.0228 84.7784 30.8174 85.3839 30.8174C86.0904 30.8174 86.7969 31.0228 87.0997 31.331C87.5034 31.7419 87.6043 32.2555 87.6043 33.2828V38.0082H86.2923V38.1109ZM86.2923 34.8237C85.4848 34.8237 85.3839 34.8237 84.9802 34.9264C84.2737 35.0291 83.87 35.44 83.87 36.0564C83.87 36.7755 84.2737 37.1864 85.1821 37.1864C85.4848 37.1864 85.8886 37.1864 86.2923 37.0836V34.8237Z" fill="#808285"/>
<path d="M94.0634 38.1109V33.6937C94.0634 32.461 93.7607 32.0501 92.6505 32.0501C92.2468 32.0501 91.8431 32.1528 91.3384 32.2555V38.1109H89.7236V31.0228H91.3384V31.4337C92.5496 30.9201 93.0542 30.8174 93.6597 30.8174C94.2653 30.8174 94.9718 31.1256 95.2746 31.5365C95.6783 31.9474 95.7792 32.461 95.7792 33.4882V38.1109H94.0634Z" fill="#808285"/>
<path d="M101.128 38.1109V37.7C100.119 38.1109 99.7152 38.2136 99.1097 38.2136C97.7976 38.2136 96.9902 37.3918 96.9902 36.1591C96.9902 34.9264 97.6967 34.2073 99.1097 34.0019C99.7152 33.8991 100.321 33.8991 101.027 33.8991V33.1801C101.027 32.3583 100.724 32.0501 99.7152 32.0501C99.1097 32.0501 98.2013 32.1528 97.4949 32.2555V31.331C98.8069 31.0228 99.6143 30.8174 100.22 30.8174C100.926 30.8174 101.633 31.0228 101.936 31.331C102.339 31.7419 102.44 32.2555 102.44 33.2828V38.0082H101.128V38.1109ZM101.128 34.8237C100.321 34.8237 100.22 34.8237 99.8162 34.9264C99.1097 35.0291 98.706 35.44 98.706 36.0564C98.706 36.7755 99.1097 37.1864 100.018 37.1864C100.321 37.1864 100.724 37.1864 101.128 37.0836V34.8237Z" fill="#808285"/>
<path d="M105.266 38.2138C104.761 38.2138 104.357 37.8029 104.357 37.2893C104.357 36.7756 104.761 36.3647 105.266 36.3647C105.77 36.3647 106.174 36.7756 106.174 37.2893C106.174 37.8029 105.77 38.2138 105.266 38.2138ZM105.266 36.5702C104.862 36.5702 104.559 36.8784 104.559 37.2893C104.559 37.7002 104.862 38.0083 105.266 38.0083C105.669 38.0083 105.972 37.7002 105.972 37.2893C105.972 36.8784 105.669 36.5702 105.266 36.5702ZM105.468 37.8029L105.165 37.2893V37.8029H104.963V36.7756H105.266C105.569 36.7756 105.669 36.8784 105.669 37.0838C105.669 37.2893 105.569 37.2893 105.468 37.392L105.77 37.9056H105.468V37.8029ZM105.165 36.9811L105.064 37.2893H105.165C105.266 37.2893 105.367 37.2893 105.367 37.1865C105.367 36.9811 105.367 36.9811 105.165 36.9811Z" fill="#808285"/>
<path d="M57.2249 38.1109V33.6937C57.2249 32.461 56.9221 32.0501 55.8119 32.0501C55.4082 32.0501 54.9036 32.1528 54.399 32.2555C54.4999 32.5637 54.4999 32.7692 54.4999 33.0773V38.1109H52.8851V33.4882C52.8851 32.461 52.4814 32.0501 51.4721 32.0501C51.0684 32.0501 50.5638 32.1528 50.0591 32.2555V38.1109H48.4443V31.0228H50.0591V31.4337C51.3712 30.9201 51.8758 30.8174 52.3804 30.8174C53.0869 30.8174 53.5916 31.0228 53.9953 31.4337C55.4082 31.0228 55.8119 30.8174 56.6193 30.8174C58.2342 30.8174 58.9406 31.5365 58.9406 33.4882V38.1109H57.2249Z" fill="#808285"/>
<path d="M54.0968 26.9143C53.6931 26.8116 53.3903 26.5034 53.0876 26.2979C52.0783 25.3734 51.4728 23.9353 51.4728 22.4971C51.4728 20.3399 52.6839 18.1826 54.6015 17.3608C52.8857 18.1826 50.8672 18.9017 48.7478 19.5181C48.6468 20.0317 48.5459 20.5453 48.5459 21.1617C48.5459 23.5244 49.8579 25.4761 51.6746 26.0925L54.0968 26.9143Z" fill="#F18A00"/>
<path d="M6.76236 42.2202L4.54199 40.7821C5.14755 41.0903 6.05588 41.3984 7.16607 41.3984C14.13 41.3984 25.8374 27.4278 28.2596 24.6542C29.9753 22.7024 32.8013 19.4152 35.2235 16.6416C37.6457 13.868 47.0318 2.36279 54.5003 2.36279C55.2068 2.36279 55.8124 2.46552 56.317 2.56824L60.9596 3.69822C60.6568 3.5955 60.455 3.5955 60.1522 3.5955C53.9957 3.5955 43.7013 16.0253 41.5818 18.7989C39.2605 21.7779 37.0401 24.4487 34.8198 27.3251C32.4985 30.0986 22.5068 43.042 10.0929 43.042C8.67996 43.042 7.56977 42.7339 6.76236 42.2202Z" fill="#F18A00"/>
<path d="M41.582 18.7988C40.8755 19.7233 40.169 20.5451 39.5635 21.4696C45.4172 20.5451 50.5644 19.107 54.6014 17.2579L50.7663 16.1279C48.2431 17.2579 45.2153 18.1824 41.582 18.7988Z" fill="#F4B223"/>
<path d="M52.9863 26.298C55.1058 26.298 56.8215 24.8598 57.7298 23.0107C57.7298 23.0107 57.8308 23.5244 57.8308 23.9353C57.8308 25.7843 56.7206 27.017 55.0048 27.017C54.7021 27.017 54.2984 26.9143 54.0965 26.8116C53.6928 26.8116 53.39 26.6061 52.9863 26.298Z" fill="#F4B223"/>
<path d="M60.1516 3.5957C60.4544 3.5957 60.7572 3.5957 60.959 3.69843C62.372 4.0066 63.1794 5.23931 63.1794 6.88291C63.1794 10.4783 59.8489 14.5873 53.6924 14.5873C53.6924 14.5873 59.4452 11.4028 59.4452 6.36929C59.4452 5.34203 59.1424 4.52023 58.6377 3.90388C59.1424 3.69843 59.647 3.5957 60.1516 3.5957Z" fill="#F4B223"/>
<path d="M4.54191 40.679C4.84469 40.8845 5.24839 41.0899 5.75302 41.1927C5.14747 40.3709 4.94562 39.3436 4.94562 38.3164C4.94562 31.1256 16.9558 25.373 29.7734 22.9076C30.5808 22.0858 31.3882 21.0585 32.1956 20.0312C18.4697 22.0858 2.82617 27.222 2.82617 37.0837C2.82617 38.1109 3.12895 39.7545 4.54191 40.679Z" fill="#F4B223"/>
<path d="M52.2796 46.5347H51.674L50.4629 43.042H51.1694L52.0777 45.9183L52.986 43.042H53.5916L52.2796 46.5347Z" fill="#808285"/>
<path d="M56.3166 43.5556L55.812 44.9938H56.7203L56.3166 43.5556ZM57.225 46.5347L56.8213 45.4047H55.6101L55.3074 46.5347H54.8027L56.0138 43.042H56.6194L57.8305 46.5347H57.225Z" fill="#808285"/>
<path d="M61.0601 46.5344C60.0509 46.5344 59.4453 45.918 59.4453 44.788C59.4453 43.5553 60.1518 42.939 61.161 42.939C61.3629 42.939 61.6657 42.939 62.0694 43.1444V43.5553C61.8675 43.4526 61.5648 43.4526 61.3629 43.4526C60.5555 43.4526 60.0509 43.9662 60.0509 44.8907C60.0509 45.7126 60.4546 46.2262 61.262 46.2262C61.4638 46.2262 61.8675 46.2262 62.0694 46.1235V46.5344C61.5648 46.5344 61.262 46.5344 61.0601 46.5344Z" fill="#808285"/>
<path d="M65.299 43.5556L64.7944 44.9938H65.7027L65.299 43.5556ZM66.2074 46.5347L65.8037 45.4047H64.5926L64.2898 46.5347H63.7852L64.9963 43.042H65.6018L66.8129 46.5347H66.2074Z" fill="#808285"/>
<path d="M69.6389 43.4529V46.5347H69.0333V43.4529H68.125V43.042H70.6482V43.4529H69.6389Z" fill="#808285"/>
<path d="M73.0704 43.042H72.4648V46.5347H73.0704V43.042Z" fill="#808285"/>
<path d="M76.7037 43.3499C76.0981 43.3499 75.7953 43.8635 75.7953 44.788C75.7953 45.7125 76.0981 46.1235 76.7037 46.1235C77.3092 46.1235 77.612 45.6098 77.612 44.6853C77.7129 43.8635 77.4102 43.3499 76.7037 43.3499ZM76.7037 46.5344C75.6944 46.5344 75.0889 45.918 75.0889 44.788C75.0889 43.658 75.6944 42.939 76.7037 42.939C77.7129 42.939 78.3185 43.5553 78.3185 44.6853C78.3185 45.918 77.7129 46.5344 76.7037 46.5344Z" fill="#808285"/>
<path d="M82.2545 46.5347L80.8415 43.6583V46.5347H80.3369V43.042H81.1443L82.5573 45.8156V43.042H83.0619V46.5347H82.2545Z" fill="#808285"/>
<path d="M89.1177 46.5344C88.1085 46.5344 87.5029 45.918 87.5029 44.788C87.5029 43.5553 88.2094 42.939 89.2187 42.939C89.4205 42.939 89.7233 42.939 90.127 43.1444V43.5553C89.9252 43.4526 89.6224 43.4526 89.4205 43.4526C88.6131 43.4526 88.1085 43.9662 88.1085 44.8907C88.1085 45.7126 88.5122 46.2262 89.3196 46.2262C89.5214 46.2262 89.9252 46.2262 90.127 46.1235V46.5344C89.6224 46.5344 89.3196 46.5344 89.1177 46.5344Z" fill="#808285"/>
<path d="M92.1455 46.5347V43.042H92.7511V46.1238H93.9622V46.5347H92.1455Z" fill="#808285"/>
<path d="M98.1006 46.2265C97.8987 46.5347 97.495 46.6374 97.0913 46.6374C96.183 46.6374 95.7793 46.2265 95.7793 45.3019V43.042H96.3849V45.3019C96.3849 45.9183 96.5867 46.1238 97.1923 46.1238C97.6969 46.1238 97.9997 45.8156 97.9997 45.3019V43.042H98.5043V45.1992C98.4034 45.7129 98.3024 46.021 98.1006 46.2265Z" fill="#808285"/>
<path d="M101.531 44.891H101.128V46.1238H101.43C101.935 46.1238 102.137 45.9183 102.137 45.5074C102.137 45.0965 101.935 44.891 101.531 44.891ZM101.43 43.3502H101.128V44.4801H101.43C101.834 44.4801 102.036 44.2747 102.036 43.8638C102.036 43.5556 101.834 43.3502 101.43 43.3502ZM102.339 46.4319C102.137 46.5347 101.935 46.5347 101.531 46.5347H100.623V43.042H101.632C102.137 43.042 102.339 43.042 102.44 43.2474C102.642 43.3502 102.742 43.6583 102.742 43.9665C102.742 44.3774 102.44 44.6856 102.036 44.7883C102.541 44.7883 102.843 45.1992 102.843 45.6101C102.742 45.9183 102.642 46.2265 102.339 46.4319Z" fill="#808285"/>
</svg>
