<svg width="109" height="49" viewBox="0 0 109 49" fill="none" xmlns="http://www.w3.org/2000/svg">
<path d="M32.1453 9.33643H1.7666V39.7431H32.1453V9.33643Z" fill="white"/>
<path d="M106.83 9.33643H31.8418V39.7431H106.83V9.33643Z" fill="white"/>
<path d="M42.3531 27.1882C38.7197 27.1882 36.3984 25.1337 36.3984 21.5383C36.3984 17.7374 38.7197 15.7856 42.454 15.7856C43.6651 15.7856 44.7753 15.9911 45.8855 16.402L45.179 18.2511C44.2707 17.9429 43.3623 17.7374 42.454 17.8402C40.4355 17.8402 38.9216 18.7647 38.9216 21.3328C38.9216 23.9009 40.6373 25.0309 42.6558 25.0309C42.9586 25.0309 43.2614 25.0309 43.5642 25.0309V21.4355H45.9864V26.5718C44.8762 26.9827 43.5642 27.1882 42.3531 27.1882Z" fill="#818386"/>
<path d="M70.8138 26.9825V21.1272L70.9147 19.4836L67.6851 26.9825H64.8591L61.9323 19.4836L62.1341 21.0245V26.9825H59.7119V15.8882H62.8406L66.373 24.7226L70.2082 15.8882H73.236V26.9825H70.8138Z" fill="#818386"/>
<path d="M86.9622 26.9825V21.1272L87.0631 19.4836L83.8335 26.9825H81.0076L78.0807 19.4836L78.2826 21.0245V26.9825H75.8604V15.8882H78.9891L82.5215 24.7226L86.3566 15.8882H89.3844V26.9825H86.9622Z" fill="#818386"/>
<path d="M51.7395 25.0311C50.9321 25.0311 50.4274 24.6202 50.4274 23.7984C50.4274 23.0793 50.7302 22.463 52.5469 22.463L54.5654 22.3603V24.312C54.0608 24.4148 52.6478 25.0311 51.7395 25.0311ZM52.7487 15.6831C51.3358 15.6831 50.0237 15.9913 48.7117 16.5049L49.2163 18.4567C50.2256 18.1485 51.2349 18.0458 52.2441 17.9431C53.8589 17.9431 54.5654 18.1485 54.5654 19.4839V20.6139C54.1617 20.6139 52.345 20.6139 52.345 20.6139C50.3265 20.6139 47.9043 21.1275 47.9043 23.9011C47.9043 26.0584 49.2163 27.0856 51.3358 27.0856C52.446 27.0856 53.5561 26.6747 54.4645 25.9556V26.9829H56.9876V18.8676C57.0886 15.9913 54.9691 15.6831 52.7487 15.6831Z" fill="#818386"/>
<path d="M95.0367 25.0311C94.2293 25.0311 93.7247 24.6202 93.7247 23.7984C93.7247 23.0793 94.0274 22.463 95.8441 22.463L97.8626 22.3603V24.312C97.358 24.4148 95.8441 25.0311 95.0367 25.0311ZM95.945 15.6831C94.5321 15.6831 93.22 15.9913 91.908 16.5049L92.4126 18.4567C93.4219 18.1485 94.4311 18.0458 95.4404 17.9431C97.0552 17.9431 97.7617 18.1485 97.7617 19.4839V20.6139C97.358 20.6139 95.5413 20.6139 95.5413 20.6139C93.5228 20.6139 91.1006 21.1275 91.1006 23.9011C91.1006 26.0584 92.4126 27.0856 94.5321 27.0856C95.6423 27.0856 96.7524 26.6747 97.6608 25.9556V26.9829H100.184V18.8676C100.285 15.9913 98.1654 15.6831 95.945 15.6831Z" fill="#818386"/>
<path d="M106.023 38.819H32.9525V10.1586H106.023V38.819ZM18.621 38.819H15.4923C15.5932 36.9699 18.5201 37.0727 18.621 38.819ZM5.39968 10.1586C5.39968 12.7267 7.62005 11.5968 8.62931 10.6722C8.62931 11.0831 8.42745 11.1859 8.32653 11.5968C8.12467 12.2131 8.22561 12.9322 8.42746 13.5486C9.43672 12.4186 10.7488 11.0832 13.171 11.3913C13.8775 11.4941 14.5839 11.905 15.0886 12.4186C16.7034 14.1649 15.1895 16.9385 13.171 16.8358C12.5654 16.733 12.1617 16.4249 12.1617 16.014C12.1617 15.2949 13.3728 15.3976 13.4738 14.6785C13.4738 13.9595 12.6663 13.5486 11.9599 13.6513C10.6478 13.8567 9.7395 15.0894 10.0423 16.4249C10.0423 16.733 10.1432 16.9385 10.345 17.2467C10.9506 18.1712 11.8589 18.7875 12.9691 18.8903C14.3821 19.0957 14.7858 18.4794 16.0978 18.1712C16.0978 19.9175 14.8867 20.8421 13.4738 20.8421C13.5747 22.3829 15.3913 22.3829 16.4006 21.972C16.2997 22.5884 15.9969 22.6911 15.9969 23.102C16.0978 24.4374 18.3182 24.5402 18.4191 23.2047C18.4191 22.6911 18.1163 22.4857 18.0154 21.972C19.0247 22.3829 20.8413 22.3829 20.9423 20.8421C19.5293 20.6366 18.2173 19.9175 18.3182 18.0685C19.5293 18.3767 20.2358 18.8903 21.4469 18.7876C22.9608 18.5821 24.5756 17.4521 24.3738 15.6031C24.2728 14.2676 22.9608 13.2404 21.6488 13.5486C21.2451 13.6513 20.9423 14.0622 20.8413 14.5758C20.8413 15.2949 22.0525 15.1922 22.1534 15.9112C22.3552 17.2467 19.8321 16.6303 19.2265 16.1167C17.5108 14.4731 19.1256 11.5968 21.0432 11.3913C22.8599 11.1859 24.7775 12.0077 25.7867 13.5486C26.4932 12.7268 25.6858 11.1859 25.5849 10.6722C26.5941 11.3913 28.8145 12.8295 28.9154 10.1586H31.3376V12.0077C30.1265 11.9049 30.3284 13.1377 30.6312 13.8567C29.9247 13.4458 28.3099 13.3431 28.4108 14.7813C29.4201 14.9867 30.6312 15.0894 30.4293 16.5276C29.0163 16.2194 27.9062 16.014 26.9978 16.6303C25.5849 17.6576 25.5849 21.6639 27.6034 21.4584C29.1173 21.253 27.7043 19.9175 28.5117 18.6848C28.8145 18.4794 29.2182 18.3767 29.521 18.5821C30.3284 18.993 30.5302 19.8148 30.5302 20.8421C30.4293 23.2047 27.1997 24.6429 25.1812 22.7938C24.4747 22.1775 23.8691 21.253 23.8691 20.3284C22.8599 20.5339 22.3552 21.8693 22.9608 23.2047C19.933 21.8693 20.7404 27.1083 22.9608 25.8756C22.5571 27.1083 22.8599 28.5465 23.97 28.7519C23.97 27.5192 24.5756 26.9029 25.1812 26.2865C27.0988 24.3347 30.5302 25.7729 30.6312 28.2383C30.6312 29.0601 30.3284 29.8819 29.6219 30.3955C29.1173 30.8064 28.8145 30.4982 28.6126 30.2928C28.2089 29.8819 29.1173 27.5192 27.6034 27.5192C25.6858 27.5192 25.6858 31.32 27.1997 32.3473C28.108 32.9637 29.1173 32.8609 30.5302 32.45C30.7321 33.8882 29.6219 33.9909 28.6126 34.1964C28.3099 35.4291 29.9247 35.7372 30.833 35.0182C30.5302 35.84 30.3284 37.0727 31.5395 36.9699V38.819H29.1173C29.1173 36.3536 26.8969 37.4836 25.8876 38.3054C25.8876 37.8945 26.0895 37.7917 26.1904 37.3808C26.3923 36.7645 26.2913 36.0454 26.0895 35.4291C25.0802 36.559 23.7682 37.8945 21.346 37.5863C20.6395 37.4836 19.933 37.0727 19.4284 36.559C17.8136 34.8127 19.3275 32.0391 21.346 32.1419C21.9515 32.1419 22.3552 32.5528 22.3552 32.9637C22.3552 33.6827 21.1441 33.58 21.0432 34.2991C21.0432 35.0182 21.8506 35.4291 22.5571 35.3263C23.8691 35.1209 24.7775 33.8882 24.4747 32.5527C24.4747 32.2446 24.3738 32.0391 24.1719 31.7309C23.5664 30.8064 22.658 30.1901 21.5478 30.0873C20.1349 29.8819 19.7312 30.4982 18.4191 30.8064C18.4191 29.0601 19.6302 28.1356 21.0432 28.1356C20.9423 26.5947 19.1256 26.5947 18.1164 27.0056C18.2173 26.3892 18.52 26.2865 18.52 25.8756C18.4191 24.5402 16.1988 24.4375 16.0978 25.7729C16.0978 26.2865 16.4006 26.492 16.5015 27.0056C15.4923 26.5947 13.6756 26.5947 13.5747 28.0328C14.9876 28.2383 16.2997 28.9574 16.1988 30.8064C14.9876 30.4982 14.2812 29.9846 13.0701 30.0873C11.5562 30.2928 9.94134 31.4228 10.1432 33.2718C10.2441 34.6073 11.5562 35.6345 12.8682 35.3263C13.2719 35.2236 13.5747 34.8127 13.6756 34.2991C13.6756 33.58 12.5654 33.6827 12.3636 32.9637C12.1617 31.6282 14.6849 32.2446 15.2904 32.7582C17.0062 34.4018 15.3913 37.2781 13.4738 37.4836C11.6571 37.689 9.7395 36.8672 8.73024 35.3263C8.02376 36.1481 8.83116 37.689 8.93209 38.2026C7.92283 37.4836 5.70245 36.0454 5.60153 38.7163H3.28023V36.9699C4.49134 37.0727 4.18858 35.84 3.98672 35.0182C4.79413 35.6345 6.40894 35.3263 6.20709 34.1964C5.19783 33.9909 4.08764 33.8882 4.28949 32.45C5.70245 32.8609 6.71171 32.9637 7.62005 32.3473C9.13394 31.32 9.13394 27.5192 7.21635 27.5192C5.70246 27.5192 6.61079 29.8819 6.20709 30.2928C6.00524 30.4982 5.60153 30.9092 5.19783 30.3955C4.59228 29.8819 4.18857 29.0601 4.18857 28.2383C4.18857 25.7729 7.72097 24.3347 9.63857 26.2865C10.2441 26.9029 10.8497 27.5192 10.8497 28.7519C11.9599 28.5465 12.2626 27.1083 11.8589 25.8756C14.0793 27.1083 14.8867 21.8693 11.8589 23.2047C12.4645 21.8693 11.9599 20.5339 10.9506 20.3284C10.9506 21.253 10.2441 22.1775 9.63857 22.7938C7.72097 24.6429 4.39041 23.3075 4.28949 20.8421C4.28949 19.9175 4.39041 18.993 5.29875 18.5821C5.60153 18.3767 6.10616 18.4794 6.30801 18.6848C7.11541 20.0203 5.70246 21.3557 7.21635 21.4584C9.13394 21.6639 9.23486 17.6576 7.8219 16.6303C6.91356 16.014 5.80338 16.1167 4.39042 16.5276C4.18857 14.9867 5.29875 14.9867 6.30801 14.7813C6.40893 13.3431 4.79412 13.4458 4.08764 13.8567C4.39042 13.1377 4.59227 11.9049 3.38116 12.0077V10.1586H5.39968ZM18.621 10.1586C18.621 12.1104 15.5932 12.0077 15.4923 10.1586H18.621ZM1.26172 40.5653H107.739V8.30957H1.26172V40.5653Z" fill="#00B577"/>
<path d="M102.793 26.5946H102.692V26.9028H102.793C102.995 26.9028 102.995 26.8001 102.995 26.8001C102.894 26.5946 102.894 26.5946 102.793 26.5946ZM103.399 27.5191C103.197 27.5191 103.096 27.4164 102.995 27.3137C102.995 27.3137 102.894 27.211 102.793 27.1082H102.692V27.5191H102.39V26.3892H102.894C103.197 26.3892 103.399 26.4919 103.399 26.8001C103.399 26.9028 103.298 27.0055 103.197 27.1082L103.298 27.211C103.399 27.3137 103.5 27.3137 103.601 27.3137L103.399 27.5191Z" fill="#818386"/>
<path d="M102.793 25.4644C101.985 25.4644 101.38 26.0807 101.38 26.9025C101.38 27.7243 101.985 28.3407 102.793 28.3407C103.6 28.3407 104.206 27.7243 104.206 26.9025C104.206 26.0807 103.499 25.4644 102.793 25.4644ZM102.793 25.7725C103.398 25.7725 103.903 26.2862 103.903 26.9025C103.903 27.5189 103.398 28.0325 102.793 28.0325C102.187 28.0325 101.683 27.5189 101.683 26.9025C101.683 26.2862 102.187 25.7725 102.793 25.7725Z" fill="#818386"/>
<path d="M56.6453 34.2878V32.5415H55.0304V34.2878H53.8193V29.8706H55.0304V31.6169H56.6453V29.8706H57.8564V34.2878H56.6453Z" fill="#818386"/>
<path d="M61.2875 30.7951C60.4801 30.7951 60.0763 31.3088 60.0763 32.0278C60.0763 32.7469 60.3791 33.3633 61.1865 33.3633C62.0949 33.3633 62.3976 32.8496 62.3976 32.0278C62.4986 31.3088 62.0949 30.7951 61.2875 30.7951ZM61.2875 34.3905C59.6726 34.3905 58.8652 33.466 58.8652 32.1306C58.8652 30.5897 59.8745 29.8706 61.3884 29.8706C63.0032 29.8706 63.7097 30.7951 63.7097 32.1306C63.7097 33.5687 62.9023 34.3905 61.2875 34.3905Z" fill="#818386"/>
<path d="M66.7374 30.7953V34.288H65.5262V30.7953H64.1133V29.7681H68.1503V30.7953H66.7374Z" fill="#818386"/>
<path d="M68.8574 34.2878V29.8706H72.188V30.8979H70.1695V31.6169H72.0871V32.5415H70.1695V33.3633H72.3898V34.3905H68.8574V34.2878Z" fill="#818386"/>
<path d="M73.2979 34.2878V29.8706H74.509V33.3633H76.4266V34.3905H73.2979V34.2878Z" fill="#818386"/>
<path d="M77.2344 34.2878V29.8706H80.5649V30.8979H78.5464V31.6169H80.464V32.5415H78.5464V33.3633H80.7668V34.3905H77.2344V34.2878Z" fill="#818386"/>
<path d="M83.0878 34.3905C82.4823 34.3905 81.8767 34.3905 81.3721 34.0823L81.6749 33.1578C82.0786 33.2605 82.5832 33.3633 83.0878 33.3633C83.6934 33.3633 83.8952 33.2605 83.8952 33.0551C83.8952 32.4387 81.5739 32.7469 81.5739 31.1033C81.5739 30.1788 82.5832 29.8706 83.4915 29.8706C83.9962 29.8706 84.6017 29.9733 85.1063 30.1788L84.8036 31.1033C84.3998 31.0006 83.9962 30.8979 83.4915 30.8979C82.9869 30.8979 82.9869 31.0006 82.9869 31.1033C82.9869 31.6169 85.4091 31.6169 85.4091 33.0551C85.2073 33.9796 84.0971 34.3905 83.0878 34.3905Z" fill="#818386"/>
</svg>
