<svg width="109" height="49" viewBox="0 0 109 49" fill="none" xmlns="http://www.w3.org/2000/svg">
<path fill-rule="evenodd" clip-rule="evenodd" d="M106.981 36.1596L106.88 36.4678H106.981C107.082 36.4678 107.182 36.3651 107.182 36.2623C107.182 36.1596 107.082 36.1596 106.981 36.1596ZM107.182 37.0841L106.88 36.5705V37.0841H106.678V35.9542H107.082C107.384 35.9542 107.485 36.0569 107.485 36.2623C107.485 36.4678 107.384 36.4678 107.283 36.5705L107.586 37.0841H107.182ZM106.981 35.7487C106.577 35.7487 106.274 36.0569 106.274 36.5705C106.274 36.9814 106.577 37.3923 106.981 37.3923C107.384 37.3923 107.687 37.0841 107.687 36.5705C107.788 36.0569 107.485 35.7487 106.981 35.7487ZM106.981 37.4951C106.476 37.4951 106.072 37.0841 106.072 36.5705C106.072 36.0569 106.476 35.646 106.981 35.646C107.485 35.646 107.889 36.0569 107.889 36.5705C107.889 37.0841 107.485 37.4951 106.981 37.4951Z" fill="#978B82"/>
<path fill-rule="evenodd" clip-rule="evenodd" d="M72.4646 27.736C69.2349 27.736 67.6201 26.0924 67.6201 22.7024C67.6201 19.2098 69.5377 17.1553 72.8683 17.1553C73.5747 17.1553 74.1803 17.258 75.4923 17.6689V18.6962C74.7859 18.4907 73.9784 18.388 73.171 18.388C70.6479 18.388 69.4368 19.7234 69.4368 22.3943C69.4368 25.1679 70.547 26.2978 72.9692 26.2978C73.272 26.2978 73.6757 26.2978 73.9785 26.1951V22.7024H75.5933V27.0169C73.8775 27.6333 73.272 27.736 72.4646 27.736Z" fill="#978B82"/>
<path fill-rule="evenodd" clip-rule="evenodd" d="M80.2351 21.3669C79.9323 21.3669 79.4277 21.4696 79.1249 21.4696V27.5304H77.4092V20.0314H79.024V20.5451C79.7305 20.1342 80.5379 19.9287 80.8407 19.9287C81.1434 19.9287 81.3453 20.0314 81.6481 20.1342V21.675C81.2444 21.4696 80.7397 21.3669 80.2351 21.3669Z" fill="#978B82"/>
<path fill-rule="evenodd" clip-rule="evenodd" d="M86.4928 24.1405C85.6854 24.1405 85.5845 24.1405 85.1808 24.2432C84.3734 24.3459 84.0706 24.7568 84.0706 25.3732C84.0706 26.195 84.5752 26.5031 85.4835 26.5031C85.8872 26.5031 86.19 26.5031 86.5937 26.4004V24.1405H86.4928ZM86.4928 27.6331V27.1195C85.3826 27.5304 84.9789 27.7358 84.4743 27.7358C83.1622 27.7358 82.2539 26.8113 82.2539 25.5786C82.2539 24.2432 82.9604 23.5241 84.4743 23.3186C85.0798 23.2159 85.6854 23.2159 86.3919 23.2159V22.3941C86.3919 21.5723 85.9882 21.1614 85.0798 21.1614C84.4743 21.1614 83.5659 21.2641 82.8595 21.3669V20.4423C84.1715 20.1342 85.0798 19.9287 85.6854 19.9287C86.3919 19.9287 87.0983 20.1342 87.502 20.5451C87.9058 20.956 88.0067 21.4696 88.0067 22.5996V27.6331H86.4928Z" fill="#978B82"/>
<path fill-rule="evenodd" clip-rule="evenodd" d="M94.5674 27.6329V23.0103C94.5674 21.6749 94.1637 21.264 93.0535 21.264C92.6498 21.264 92.2461 21.3667 91.6405 21.4694V27.6329H89.9248V20.134H91.5396V20.6476C92.8517 20.134 93.2554 20.0312 93.9618 20.0312C94.6683 20.0312 95.2739 20.3394 95.6776 20.7503C96.0813 21.264 96.1822 21.7776 96.1822 22.8048V27.6329H94.5674Z" fill="#978B82"/>
<path fill-rule="evenodd" clip-rule="evenodd" d="M102.742 21.2643C102.439 21.2643 102.136 21.1616 101.732 21.1616C100.319 21.1616 99.4111 22.1888 99.4111 23.9352C99.4111 25.5788 100.218 26.5033 101.53 26.5033C101.934 26.5033 102.237 26.5033 102.641 26.4006V21.2643H102.742ZM102.742 27.6333V27.2224C101.631 27.736 101.127 27.8387 100.622 27.8387C98.8055 27.8387 97.6953 26.4006 97.6953 24.1406C97.6953 21.8807 99.2092 20.1343 101.127 20.1343C101.631 20.1343 102.136 20.2371 102.641 20.4425V16.3335H104.356V27.6333H102.742Z" fill="#978B82"/>
<path fill-rule="evenodd" clip-rule="evenodd" d="M39.6636 31.9475V33.6938H41.4803V34.5156H39.6636V37.3919H38.3516V31.0229H41.9849V31.9475H39.6636Z" fill="#978B82"/>
<path fill-rule="evenodd" clip-rule="evenodd" d="M42.6908 37.3921H43.9019V32.7695H42.6908V37.3921ZM43.2963 32.1531C42.7917 32.1531 42.5898 31.9477 42.5898 31.5368C42.5898 31.1259 42.7917 30.9204 43.2963 30.9204C43.801 30.9204 44.1037 31.1259 44.1037 31.5368C44.1037 32.0504 43.9019 32.1531 43.2963 32.1531Z" fill="#978B82"/>
<path fill-rule="evenodd" clip-rule="evenodd" d="M46.8294 33.3859C46.2239 33.3859 46.022 33.7968 46.022 34.6186H47.5359C47.5359 33.6941 47.435 33.3859 46.8294 33.3859ZM46.022 35.2349C46.022 36.1595 46.4257 36.5704 47.435 36.5704C47.7377 36.5704 48.1414 36.5704 48.5451 36.4676V37.1867C47.6368 37.3922 47.2331 37.4949 46.9303 37.4949C45.5174 37.4949 44.71 36.6731 44.71 35.2349C44.71 33.6941 45.5174 32.7695 46.8294 32.7695C47.7377 32.7695 48.3433 33.1804 48.6461 34.0022C48.747 34.3104 48.747 34.6186 48.747 35.3377H46.022V35.2349Z" fill="#978B82"/>
<path fill-rule="evenodd" clip-rule="evenodd" d="M50.8664 37.3924C50.4627 37.3924 50.059 37.2896 49.4535 37.1869V36.4678C49.9581 36.5706 50.2609 36.6733 50.6646 36.6733C51.1692 36.6733 51.3711 36.5706 51.3711 36.1597C51.3711 35.9542 51.2701 35.8515 50.9674 35.646L50.2609 35.3379C49.6553 35.0297 49.3525 34.6188 49.3525 34.0024C49.3525 33.1806 49.9581 32.667 50.9674 32.667C51.3711 32.667 51.6738 32.7697 52.2794 32.8724V33.5915C51.9766 33.4888 51.472 33.3861 51.1692 33.3861C50.6646 33.3861 50.4627 33.4888 50.4627 33.797C50.4627 34.0024 50.5636 34.1051 50.9674 34.3106L51.6738 34.6188C52.2794 34.927 52.4812 35.2351 52.4812 35.8515C52.5822 36.8787 51.8757 37.3924 50.8664 37.3924Z" fill="#978B82"/>
<path fill-rule="evenodd" clip-rule="evenodd" d="M54.9036 37.3923C53.8943 37.3923 53.5915 36.9814 53.5915 35.9542V33.4888H53.0869V32.7697H53.4906V31.8452L54.7017 31.3315V32.7697H56.0138V33.4888H54.7017V35.8515C54.7017 36.3651 54.9036 36.5705 55.4082 36.5705C55.6101 36.5705 55.711 36.5705 56.0138 36.4678V37.1869C55.4082 37.3923 55.1054 37.3923 54.9036 37.3923Z" fill="#978B82"/>
<path fill-rule="evenodd" clip-rule="evenodd" d="M59.1423 35.235C58.7386 35.235 58.6377 35.235 58.4358 35.235C58.0321 35.3377 57.8303 35.5432 57.8303 35.8514C57.8303 36.2623 58.133 36.4677 58.6377 36.4677C58.8395 36.4677 59.0414 36.4677 59.2432 36.365V35.235H59.1423ZM59.1423 37.3922V37.0841C58.4358 37.3922 58.234 37.3922 57.9312 37.3922C57.1238 37.3922 56.6191 36.8786 56.6191 35.9541C56.6191 35.1323 57.1238 34.6187 58.0321 34.5159C58.4358 34.5159 58.7386 34.4132 59.1423 34.4132V34.0023C59.1423 33.5914 58.9404 33.386 58.3349 33.386C57.9312 33.386 57.4266 33.4887 56.9219 33.4887V32.7696C57.8303 32.5642 58.3349 32.4614 58.7386 32.4614C59.2432 32.4614 59.6469 32.5642 59.9497 32.7696C60.2525 32.9751 60.3534 33.386 60.3534 34.105V37.1868H59.1423V37.3922Z" fill="#978B82"/>
<path fill-rule="evenodd" clip-rule="evenodd" d="M65.2982 32.0505L64.5918 34.6186H66.1057L65.2982 32.0505ZM66.8121 37.3922L66.3075 35.5432H64.3899L63.8853 37.3922H62.5732L64.6927 31.126H66.2066L68.2251 37.3922H66.8121Z" fill="#978B82"/>
<path fill-rule="evenodd" clip-rule="evenodd" d="M74.2811 37.3924V34.516C74.2811 33.8997 74.0792 33.5915 73.4737 33.5915C73.2718 33.5915 73.0699 33.5915 72.6662 33.6942C72.6662 33.797 72.7672 33.8997 72.7672 34.1051V37.2896H71.5561V34.3106C71.5561 33.797 71.3542 33.5915 70.7486 33.5915C70.5468 33.5915 70.244 33.5915 70.0422 33.6942V37.3924H68.8311V32.7697H70.0422V33.0779C70.8496 32.7697 71.1524 32.667 71.5561 32.667C71.9598 32.667 72.3635 32.7697 72.5653 33.0779C73.4737 32.7697 73.7764 32.667 74.1801 32.667C75.2903 32.667 75.694 33.1806 75.694 34.4133V37.3924H74.2811Z" fill="#978B82"/>
<path fill-rule="evenodd" clip-rule="evenodd" d="M78.4192 33.3859C77.8137 33.3859 77.6118 33.7968 77.6118 34.6186H79.1257C79.2267 33.6941 79.0248 33.3859 78.4192 33.3859ZM77.6118 35.2349C77.6118 36.1595 78.0155 36.5704 79.0248 36.5704C79.3276 36.5704 79.7313 36.5704 80.135 36.4676V37.1867C79.2267 37.3922 78.823 37.4949 78.5202 37.4949C77.1072 37.4949 76.2998 36.6731 76.2998 35.2349C76.2998 33.6941 77.1072 32.7695 78.4192 32.7695C79.3276 32.7695 79.9331 33.1804 80.2359 34.0022C80.3368 34.3104 80.3368 34.6186 80.3368 35.3377H77.6118V35.2349Z" fill="#978B82"/>
<path fill-rule="evenodd" clip-rule="evenodd" d="M83.1624 33.6942C82.9605 33.6942 82.6577 33.6942 82.5568 33.797V37.3924H81.3457V32.7697H82.5568V33.0779C83.0614 32.7697 83.4651 32.667 83.667 32.667C83.8689 32.667 83.9698 32.667 84.1716 32.7697V33.797C83.7679 33.6942 83.4651 33.6942 83.1624 33.6942Z" fill="#978B82"/>
<path fill-rule="evenodd" clip-rule="evenodd" d="M84.6768 37.3921H85.8879V32.7695H84.6768V37.3921ZM85.3832 32.1531C84.8786 32.1531 84.6768 31.9477 84.6768 31.5368C84.6768 31.1259 84.8786 30.9204 85.3832 30.9204C85.8879 30.9204 86.1906 31.1259 86.1906 31.5368C86.0897 32.0504 85.8879 32.1531 85.3832 32.1531Z" fill="#978B82"/>
<path fill-rule="evenodd" clip-rule="evenodd" d="M88.9153 37.3924C87.6033 37.3924 86.7959 36.5706 86.7959 35.1324C86.7959 33.5915 87.7042 32.667 89.1172 32.667C89.42 32.667 89.7227 32.7697 90.3283 32.8724V33.5915C90.0255 33.4888 89.7227 33.4888 89.42 33.4888C88.5116 33.4888 88.007 34.0024 88.007 35.0297C88.007 36.0569 88.4107 36.4678 89.42 36.4678C89.7227 36.4678 90.1264 36.4678 90.3283 36.3651V37.0842C89.5209 37.3924 89.2181 37.3924 88.9153 37.3924Z" fill="#978B82"/>
<path fill-rule="evenodd" clip-rule="evenodd" d="M93.4574 35.235C93.0537 35.235 92.9528 35.235 92.7509 35.235C92.3472 35.3377 92.1453 35.5432 92.1453 35.8514C92.1453 36.2623 92.4481 36.4677 92.9528 36.4677C93.1546 36.4677 93.3565 36.4677 93.5583 36.365V35.235H93.4574ZM93.5583 37.3922V37.0841C92.8518 37.3922 92.65 37.3922 92.3472 37.3922C91.5398 37.3922 91.0352 36.8786 91.0352 35.9541C91.0352 35.1323 91.5398 34.6187 92.4481 34.5159C92.8518 34.5159 93.1546 34.4132 93.5583 34.4132V34.0023C93.5583 33.5914 93.3565 33.386 92.7509 33.386C92.3472 33.386 91.8426 33.4887 91.3379 33.4887V32.7696C92.2463 32.5642 92.7509 32.4614 93.1546 32.4614C93.6592 32.4614 94.0629 32.5642 94.3657 32.7696C94.6685 32.9751 94.7694 33.386 94.7694 34.105V37.1868H93.5583V37.3922Z" fill="#978B82"/>
<path fill-rule="evenodd" clip-rule="evenodd" d="M98.6039 37.3924V34.516C98.6039 33.8997 98.4021 33.5915 97.7965 33.5915C97.5946 33.5915 97.3928 33.5915 97.09 33.6942V37.3924H95.8789V32.7697H97.09V33.0779C97.8974 32.7697 98.2002 32.667 98.6039 32.667C99.0076 32.667 99.4113 32.8724 99.6132 33.0779C99.815 33.3861 99.9159 33.6942 99.9159 34.3106V37.2896H98.6039V37.3924Z" fill="#978B82"/>
<path fill-rule="evenodd" clip-rule="evenodd" d="M103.146 35.235C102.742 35.235 102.641 35.235 102.439 35.235C102.036 35.3377 101.834 35.5432 101.834 35.8514C101.834 36.2623 102.137 36.4677 102.641 36.4677C102.843 36.4677 103.045 36.4677 103.247 36.365V35.235H103.146ZM103.247 37.3922V37.0841C102.54 37.3922 102.338 37.3922 102.036 37.3922C101.228 37.3922 100.724 36.8786 100.724 35.9541C100.724 35.1323 101.228 34.6187 102.137 34.5159C102.54 34.5159 102.843 34.4132 103.247 34.4132V34.0023C103.247 33.5914 103.045 33.386 102.439 33.386C102.036 33.386 101.531 33.4887 101.026 33.4887V32.7696C101.935 32.5642 102.439 32.4614 102.843 32.4614C103.348 32.4614 103.751 32.5642 104.054 32.7696C104.357 32.9751 104.458 33.386 104.458 34.105V37.1868H103.247V37.3922Z" fill="#978B82"/>
<path fill-rule="evenodd" clip-rule="evenodd" d="M40.6729 46.1237V44.4801H39.058V46.1237H38.3516V42.5283H39.058V44.0692H40.6729V42.5283H41.2784V46.1237H40.6729Z" fill="#978B82"/>
<path fill-rule="evenodd" clip-rule="evenodd" d="M45.1132 42.9394C44.5076 42.9394 44.1039 43.453 44.1039 44.3776C44.1039 45.3021 44.5076 45.8157 45.1132 45.8157C45.7188 45.8157 46.1225 45.3021 46.1225 44.3776C46.1225 43.3503 45.7188 42.9394 45.1132 42.9394ZM45.1132 46.2266C44.003 46.2266 43.3975 45.6103 43.3975 44.3776C43.3975 43.1449 44.1039 42.4258 45.1132 42.4258C46.1225 42.4258 46.8289 43.0421 46.8289 44.2748C46.728 45.5075 46.1225 46.2266 45.1132 46.2266Z" fill="#978B82"/>
<path fill-rule="evenodd" clip-rule="evenodd" d="M49.9576 42.9392V46.1237H49.352V42.9392H48.3428V42.5283H51.0678V42.9392H49.9576Z" fill="#978B82"/>
<path fill-rule="evenodd" clip-rule="evenodd" d="M52.8848 46.1237V42.5283H55.0042V42.9392H53.5912V44.0692H54.8024V44.4801H53.5912V45.7128H55.1051V46.1237H52.8848Z" fill="#978B82"/>
<path fill-rule="evenodd" clip-rule="evenodd" d="M57.0225 46.1237V42.5283H57.7289V45.7128H59.041V46.1237H57.0225Z" fill="#978B82"/>
<path fill-rule="evenodd" clip-rule="evenodd" d="M61.7661 46.2263C61.4633 46.2263 61.1605 46.1236 60.7568 46.0209V45.61C61.1605 45.7127 61.4633 45.7127 61.6652 45.7127C61.9679 45.7127 62.3716 45.7127 62.3716 45.1991C62.3716 44.8909 62.1698 44.7882 61.9679 44.6854L61.3624 44.3773C60.9587 44.1718 60.7568 43.8636 60.7568 43.35C60.7568 42.6309 61.2615 42.3228 61.9679 42.3228C62.2707 42.3228 62.5735 42.4255 62.9772 42.5282V42.9391C62.6744 42.8364 62.3716 42.8364 62.1698 42.8364C61.7661 42.8364 61.4633 42.9391 61.4633 43.2473C61.4633 43.4527 61.5642 43.6582 61.9679 43.7609L62.4726 43.9664C62.8763 44.1718 63.1791 44.48 63.1791 44.9936C63.0781 45.8154 62.5735 46.2263 61.7661 46.2263Z" fill="#978B82"/>
<path fill-rule="evenodd" clip-rule="evenodd" d="M69.0327 42.5284C68.73 42.5284 68.5281 42.7338 68.5281 43.042C68.5281 43.2475 68.629 43.4529 68.8309 43.6584L68.9318 43.8638C69.2346 43.6584 69.4364 43.4529 69.4364 43.1447C69.5374 42.6311 69.3355 42.5284 69.0327 42.5284ZM68.73 44.2747C68.4272 44.4802 68.3263 44.6856 68.3263 44.8911C68.3263 45.4047 68.629 45.7129 69.1337 45.7129C69.4364 45.7129 69.6383 45.7129 69.7392 45.5074L68.73 44.2747ZM70.3448 46.1238L70.1429 45.9183C69.8402 46.1238 69.5374 46.2265 69.1337 46.2265C68.2253 46.2265 67.7207 45.8156 67.7207 45.0965C67.7207 44.5829 67.9226 44.3775 68.5281 44.0693L68.4272 43.9665C68.2253 43.6584 68.0235 43.4529 68.0235 43.1447C68.0235 42.5284 68.4272 42.2202 69.1337 42.2202C69.7392 42.2202 70.1429 42.5284 70.1429 43.1447C70.1429 43.6584 69.9411 43.8638 69.3355 44.172L70.3448 45.4047C70.4457 45.1993 70.5466 45.0965 70.5466 44.6856V44.4802H71.1522C71.1522 44.4802 71.1522 44.4802 71.1522 44.6856C71.1522 45.1993 71.0513 45.5074 70.6476 45.8156L71.1522 46.432H70.3448V46.1238Z" fill="#978B82"/>
<path fill-rule="evenodd" clip-rule="evenodd" d="M76.6024 42.9394H76.0977V44.1721H76.6024C77.0061 44.1721 77.2079 43.9667 77.2079 43.5558C77.3088 43.0421 77.107 42.9394 76.6024 42.9394ZM77.5107 46.1239L76.5014 44.3776H76.1987V46.1239H75.4922V42.4258H76.7033C77.2079 42.4258 77.4098 42.4258 77.6116 42.6312C77.8135 42.734 78.0153 43.0421 78.0153 43.3503C78.0153 43.9667 77.5107 44.2748 77.2079 44.3776L78.3181 46.1239H77.5107Z" fill="#978B82"/>
<path fill-rule="evenodd" clip-rule="evenodd" d="M80.1348 46.1237V42.5283H82.2542V42.9392H80.8412V44.0692H82.0524V44.4801H80.8412V45.7128H82.3551V46.1237H80.1348Z" fill="#978B82"/>
<path fill-rule="evenodd" clip-rule="evenodd" d="M85.1815 46.2263C84.8787 46.2263 84.5759 46.1236 84.1722 46.0209V45.61C84.5759 45.7127 84.8787 45.7127 85.0805 45.7127C85.3833 45.7127 85.787 45.7127 85.787 45.1991C85.787 44.8909 85.5852 44.7882 85.3833 44.6854L84.7778 44.3773C84.3741 44.1718 84.0713 43.8636 84.0713 43.35C84.0713 42.6309 84.5759 42.3228 85.2824 42.3228C85.5852 42.3228 85.888 42.4255 86.2917 42.5282V42.9391C85.9889 42.8364 85.6861 42.8364 85.4842 42.8364C85.0805 42.8364 84.7778 42.9391 84.7778 43.2473C84.7778 43.4527 84.8787 43.6582 85.2824 43.7609L85.787 44.1718C86.1907 44.3773 86.4935 44.6854 86.4935 45.1991C86.4935 45.8154 85.888 46.2263 85.1815 46.2263Z" fill="#978B82"/>
<path fill-rule="evenodd" clip-rule="evenodd" d="M89.9247 42.9394C89.3192 42.9394 88.9155 43.453 88.9155 44.3776C88.9155 45.3021 89.3192 45.8157 89.9247 45.8157C90.5303 45.8157 90.934 45.3021 90.934 44.3776C90.934 43.3503 90.5303 42.9394 89.9247 42.9394ZM89.9247 46.2266C88.8145 46.2266 88.209 45.6103 88.209 44.3776C88.209 43.1449 88.9155 42.4258 89.9247 42.4258C90.934 42.4258 91.6405 43.0421 91.6405 44.2748C91.6405 45.5075 90.934 46.2266 89.9247 46.2266Z" fill="#978B82"/>
<path fill-rule="evenodd" clip-rule="evenodd" d="M94.7694 42.9394H94.2647V44.1721H94.7694C95.1731 44.1721 95.3749 43.9667 95.3749 43.5558C95.3749 43.0421 95.274 42.9394 94.7694 42.9394ZM95.6777 46.1239L94.6684 44.3776H94.3657V46.1239H93.6592V42.4258H94.8703C95.3749 42.4258 95.5768 42.4258 95.7786 42.6312C95.9805 42.734 96.1823 43.0421 96.1823 43.3503C96.1823 43.9667 95.6777 44.2748 95.3749 44.3776L96.4851 46.1239H95.6777Z" fill="#978B82"/>
<path fill-rule="evenodd" clip-rule="evenodd" d="M99.5126 42.9392V46.1237H98.8061V42.9392H97.7969V42.5283H100.522V42.9392H99.5126Z" fill="#978B82"/>
<path fill-rule="evenodd" clip-rule="evenodd" d="M103.247 46.2263C102.944 46.2263 102.641 46.1236 102.238 46.0209V45.61C102.641 45.7127 102.944 45.7127 103.146 45.7127C103.449 45.7127 103.852 45.7127 103.852 45.1991C103.852 44.8909 103.651 44.7882 103.449 44.6854L102.843 44.3773C102.44 44.1718 102.137 43.8636 102.137 43.35C102.137 42.6309 102.641 42.3228 103.348 42.3228C103.651 42.3228 103.953 42.4255 104.357 42.5282V42.9391C104.054 42.8364 103.752 42.8364 103.55 42.8364C103.146 42.8364 102.843 42.9391 102.843 43.2473C102.843 43.4527 102.944 43.6582 103.348 43.7609L103.852 43.9664C104.256 44.1718 104.559 44.48 104.559 44.9936C104.559 45.8154 103.953 46.2263 103.247 46.2263Z" fill="#978B82"/>
<path fill-rule="evenodd" clip-rule="evenodd" d="M54.0955 28.558C53.6918 28.4553 53.2881 28.1471 52.9854 27.8389C51.9761 26.9144 51.3706 25.2708 51.3706 23.8326C51.3706 21.5727 52.5817 19.3127 54.6002 18.3882C52.7835 19.21 50.765 19.9291 48.5446 20.6481C48.4437 21.1618 48.3428 21.7781 48.3428 22.2917C48.3428 24.7572 49.6548 26.8117 51.5724 27.5307L54.0955 28.558Z" fill="#AB9765"/>
<path fill-rule="evenodd" clip-rule="evenodd" d="M5.14649 44.5827L2.8252 43.0418C3.43075 43.4527 4.33908 43.7609 5.5502 43.7609C12.8169 43.7609 24.827 29.1739 27.3502 26.1948C29.1669 24.1403 32.0937 20.7504 34.5159 17.7713C37.0391 14.7923 46.8289 2.77344 54.4993 2.77344C55.2057 2.77344 55.8113 2.87616 56.4169 2.97889L61.2613 4.10887C60.9585 4.10887 60.6557 4.10887 60.353 4.10887C53.9946 4.10887 43.3974 17.0523 41.177 20.0313C38.8557 23.1131 36.5345 25.9894 34.1122 28.9684C31.7909 31.9474 21.3956 45.4045 8.57797 45.4045C7.06408 45.4045 5.9539 45.0963 5.14649 44.5827Z" fill="#AB9765"/>
<path fill-rule="evenodd" clip-rule="evenodd" d="M41.1771 20.0314C40.4706 20.9559 39.7641 21.8805 39.0576 22.805C45.1132 21.7777 50.4622 20.3396 54.6002 18.4905L50.6641 17.2578C48.04 18.3878 44.9113 19.3123 41.1771 20.0314Z" fill="#978B82"/>
<path fill-rule="evenodd" clip-rule="evenodd" d="M52.9854 27.8387C55.2057 27.8387 56.9215 26.4005 57.9307 24.4487C57.9307 24.4487 58.0316 24.9624 58.0316 25.476C58.0316 27.4278 56.9215 28.7632 55.1048 28.7632C54.802 28.7632 54.3983 28.6605 54.0955 28.5577C53.6918 28.3523 53.2881 28.1468 52.9854 27.8387Z" fill="#978B82"/>
<path fill-rule="evenodd" clip-rule="evenodd" d="M60.3535 4.10889C60.6563 4.10889 60.959 4.10889 61.2618 4.21161C62.7757 4.51979 63.5831 5.75249 63.5831 7.49882C63.5831 11.2997 60.1516 15.5114 53.6924 15.5114C53.6924 15.5114 59.647 12.2242 59.647 6.88247C59.647 5.85522 59.3442 4.93069 58.7387 4.21161C59.3442 4.10889 59.8489 4.10889 60.3535 4.10889Z" fill="#978B82"/>
<path fill-rule="evenodd" clip-rule="evenodd" d="M2.82546 43.0422C3.22916 43.2477 3.63286 43.4531 4.13749 43.5559C3.53194 42.7341 3.33009 41.7068 3.33009 40.4741C3.33009 32.8724 15.744 26.8116 28.9653 24.3462C29.7727 23.4217 30.5801 22.3944 31.4884 21.3672C17.2579 23.5244 1.00879 28.9689 1.00879 39.2414C1.00879 40.2687 1.31157 42.015 2.82546 43.0422Z" fill="#978B82"/>
<path fill-rule="evenodd" clip-rule="evenodd" d="M106.981 36.1596L106.88 36.4678H106.981C107.082 36.4678 107.182 36.3651 107.182 36.2623C107.182 36.1596 107.082 36.1596 106.981 36.1596ZM107.182 37.0841L106.88 36.5705V37.0841H106.678V35.9542H107.082C107.384 35.9542 107.485 36.0569 107.485 36.2623C107.485 36.4678 107.384 36.4678 107.283 36.5705L107.586 37.0841H107.182ZM106.981 35.7487C106.577 35.7487 106.274 36.0569 106.274 36.5705C106.274 36.9814 106.577 37.3923 106.981 37.3923C107.384 37.3923 107.687 37.0841 107.687 36.5705C107.788 36.0569 107.485 35.7487 106.981 35.7487ZM106.981 37.4951C106.476 37.4951 106.072 37.0841 106.072 36.5705C106.072 36.0569 106.476 35.646 106.981 35.646C107.485 35.646 107.889 36.0569 107.889 36.5705C107.889 37.0841 107.485 37.4951 106.981 37.4951Z" fill="#978B82"/>
<path fill-rule="evenodd" clip-rule="evenodd" d="M72.4646 27.736C69.2349 27.736 67.6201 26.0924 67.6201 22.7024C67.6201 19.2098 69.5377 17.1553 72.8683 17.1553C73.5747 17.1553 74.1803 17.258 75.4923 17.6689V18.6962C74.7859 18.4907 73.9784 18.388 73.171 18.388C70.6479 18.388 69.4368 19.7234 69.4368 22.3943C69.4368 25.1679 70.547 26.2978 72.9692 26.2978C73.272 26.2978 73.6757 26.2978 73.9785 26.1951V22.7024H75.5933V27.0169C73.8775 27.6333 73.272 27.736 72.4646 27.736Z" fill="#978B82"/>
<path fill-rule="evenodd" clip-rule="evenodd" d="M80.2351 21.3669C79.9323 21.3669 79.4277 21.4696 79.1249 21.4696V27.5304H77.4092V20.0314H79.024V20.5451C79.7305 20.1342 80.5379 19.9287 80.8407 19.9287C81.1434 19.9287 81.3453 20.0314 81.6481 20.1342V21.675C81.2444 21.4696 80.7397 21.3669 80.2351 21.3669Z" fill="#978B82"/>
<path fill-rule="evenodd" clip-rule="evenodd" d="M86.4928 24.1405C85.6854 24.1405 85.5845 24.1405 85.1808 24.2432C84.3734 24.3459 84.0706 24.7568 84.0706 25.3732C84.0706 26.195 84.5752 26.5031 85.4835 26.5031C85.8872 26.5031 86.19 26.5031 86.5937 26.4004V24.1405H86.4928ZM86.4928 27.6331V27.1195C85.3826 27.5304 84.9789 27.7358 84.4743 27.7358C83.1622 27.7358 82.2539 26.8113 82.2539 25.5786C82.2539 24.2432 82.9604 23.5241 84.4743 23.3186C85.0798 23.2159 85.6854 23.2159 86.3919 23.2159V22.3941C86.3919 21.5723 85.9882 21.1614 85.0798 21.1614C84.4743 21.1614 83.5659 21.2641 82.8595 21.3669V20.4423C84.1715 20.1342 85.0798 19.9287 85.6854 19.9287C86.3919 19.9287 87.0983 20.1342 87.502 20.5451C87.9058 20.956 88.0067 21.4696 88.0067 22.5996V27.6331H86.4928Z" fill="#978B82"/>
<path fill-rule="evenodd" clip-rule="evenodd" d="M94.5674 27.6329V23.0103C94.5674 21.6749 94.1637 21.264 93.0535 21.264C92.6498 21.264 92.2461 21.3667 91.6405 21.4694V27.6329H89.9248V20.134H91.5396V20.6476C92.8517 20.134 93.2554 20.0312 93.9618 20.0312C94.6683 20.0312 95.2739 20.3394 95.6776 20.7503C96.0813 21.264 96.1822 21.7776 96.1822 22.8048V27.6329H94.5674Z" fill="#978B82"/>
<path fill-rule="evenodd" clip-rule="evenodd" d="M102.742 21.2643C102.439 21.2643 102.136 21.1616 101.732 21.1616C100.319 21.1616 99.4111 22.1888 99.4111 23.9352C99.4111 25.5788 100.218 26.5033 101.53 26.5033C101.934 26.5033 102.237 26.5033 102.641 26.4006V21.2643H102.742ZM102.742 27.6333V27.2224C101.631 27.736 101.127 27.8387 100.622 27.8387C98.8055 27.8387 97.6953 26.4006 97.6953 24.1406C97.6953 21.8807 99.2092 20.1343 101.127 20.1343C101.631 20.1343 102.136 20.2371 102.641 20.4425V16.3335H104.356V27.6333H102.742Z" fill="#978B82"/>
<path fill-rule="evenodd" clip-rule="evenodd" d="M39.6636 31.9475V33.6938H41.4803V34.5156H39.6636V37.3919H38.3516V31.0229H41.9849V31.9475H39.6636Z" fill="#978B82"/>
<path fill-rule="evenodd" clip-rule="evenodd" d="M42.6908 37.3921H43.9019V32.7695H42.6908V37.3921ZM43.2963 32.1531C42.7917 32.1531 42.5898 31.9477 42.5898 31.5368C42.5898 31.1259 42.7917 30.9204 43.2963 30.9204C43.801 30.9204 44.1037 31.1259 44.1037 31.5368C44.1037 32.0504 43.9019 32.1531 43.2963 32.1531Z" fill="#978B82"/>
<path fill-rule="evenodd" clip-rule="evenodd" d="M46.8294 33.3859C46.2239 33.3859 46.022 33.7968 46.022 34.6186H47.5359C47.5359 33.6941 47.435 33.3859 46.8294 33.3859ZM46.022 35.2349C46.022 36.1595 46.4257 36.5704 47.435 36.5704C47.7377 36.5704 48.1414 36.5704 48.5451 36.4676V37.1867C47.6368 37.3922 47.2331 37.4949 46.9303 37.4949C45.5174 37.4949 44.71 36.6731 44.71 35.2349C44.71 33.6941 45.5174 32.7695 46.8294 32.7695C47.7377 32.7695 48.3433 33.1804 48.6461 34.0022C48.747 34.3104 48.747 34.6186 48.747 35.3377H46.022V35.2349Z" fill="#978B82"/>
<path fill-rule="evenodd" clip-rule="evenodd" d="M50.8664 37.3924C50.4627 37.3924 50.059 37.2896 49.4535 37.1869V36.4678C49.9581 36.5706 50.2609 36.6733 50.6646 36.6733C51.1692 36.6733 51.3711 36.5706 51.3711 36.1597C51.3711 35.9542 51.2701 35.8515 50.9674 35.646L50.2609 35.3379C49.6553 35.0297 49.3525 34.6188 49.3525 34.0024C49.3525 33.1806 49.9581 32.667 50.9674 32.667C51.3711 32.667 51.6738 32.7697 52.2794 32.8724V33.5915C51.9766 33.4888 51.472 33.3861 51.1692 33.3861C50.6646 33.3861 50.4627 33.4888 50.4627 33.797C50.4627 34.0024 50.5636 34.1051 50.9674 34.3106L51.6738 34.6188C52.2794 34.927 52.4812 35.2351 52.4812 35.8515C52.5822 36.8787 51.8757 37.3924 50.8664 37.3924Z" fill="#978B82"/>
<path fill-rule="evenodd" clip-rule="evenodd" d="M54.9036 37.3923C53.8943 37.3923 53.5915 36.9814 53.5915 35.9542V33.4888H53.0869V32.7697H53.4906V31.8452L54.7017 31.3315V32.7697H56.0138V33.4888H54.7017V35.8515C54.7017 36.3651 54.9036 36.5705 55.4082 36.5705C55.6101 36.5705 55.711 36.5705 56.0138 36.4678V37.1869C55.4082 37.3923 55.1054 37.3923 54.9036 37.3923Z" fill="#978B82"/>
<path fill-rule="evenodd" clip-rule="evenodd" d="M59.1423 35.235C58.7386 35.235 58.6377 35.235 58.4358 35.235C58.0321 35.3377 57.8303 35.5432 57.8303 35.8514C57.8303 36.2623 58.133 36.4677 58.6377 36.4677C58.8395 36.4677 59.0414 36.4677 59.2432 36.365V35.235H59.1423ZM59.1423 37.3922V37.0841C58.4358 37.3922 58.234 37.3922 57.9312 37.3922C57.1238 37.3922 56.6191 36.8786 56.6191 35.9541C56.6191 35.1323 57.1238 34.6187 58.0321 34.5159C58.4358 34.5159 58.7386 34.4132 59.1423 34.4132V34.0023C59.1423 33.5914 58.9404 33.386 58.3349 33.386C57.9312 33.386 57.4266 33.4887 56.9219 33.4887V32.7696C57.8303 32.5642 58.3349 32.4614 58.7386 32.4614C59.2432 32.4614 59.6469 32.5642 59.9497 32.7696C60.2525 32.9751 60.3534 33.386 60.3534 34.105V37.1868H59.1423V37.3922Z" fill="#978B82"/>
<path fill-rule="evenodd" clip-rule="evenodd" d="M65.2982 32.0505L64.5918 34.6186H66.1057L65.2982 32.0505ZM66.8121 37.3922L66.3075 35.5432H64.3899L63.8853 37.3922H62.5732L64.6927 31.126H66.2066L68.2251 37.3922H66.8121Z" fill="#978B82"/>
<path fill-rule="evenodd" clip-rule="evenodd" d="M74.2811 37.3924V34.516C74.2811 33.8997 74.0792 33.5915 73.4737 33.5915C73.2718 33.5915 73.0699 33.5915 72.6662 33.6942C72.6662 33.797 72.7672 33.8997 72.7672 34.1051V37.2896H71.5561V34.3106C71.5561 33.797 71.3542 33.5915 70.7486 33.5915C70.5468 33.5915 70.244 33.5915 70.0422 33.6942V37.3924H68.8311V32.7697H70.0422V33.0779C70.8496 32.7697 71.1524 32.667 71.5561 32.667C71.9598 32.667 72.3635 32.7697 72.5653 33.0779C73.4737 32.7697 73.7764 32.667 74.1801 32.667C75.2903 32.667 75.694 33.1806 75.694 34.4133V37.3924H74.2811Z" fill="#978B82"/>
<path fill-rule="evenodd" clip-rule="evenodd" d="M78.4192 33.3859C77.8137 33.3859 77.6118 33.7968 77.6118 34.6186H79.1257C79.2267 33.6941 79.0248 33.3859 78.4192 33.3859ZM77.6118 35.2349C77.6118 36.1595 78.0155 36.5704 79.0248 36.5704C79.3276 36.5704 79.7313 36.5704 80.135 36.4676V37.1867C79.2267 37.3922 78.823 37.4949 78.5202 37.4949C77.1072 37.4949 76.2998 36.6731 76.2998 35.2349C76.2998 33.6941 77.1072 32.7695 78.4192 32.7695C79.3276 32.7695 79.9331 33.1804 80.2359 34.0022C80.3368 34.3104 80.3368 34.6186 80.3368 35.3377H77.6118V35.2349Z" fill="#978B82"/>
<path fill-rule="evenodd" clip-rule="evenodd" d="M83.1624 33.6942C82.9605 33.6942 82.6577 33.6942 82.5568 33.797V37.3924H81.3457V32.7697H82.5568V33.0779C83.0614 32.7697 83.4651 32.667 83.667 32.667C83.8689 32.667 83.9698 32.667 84.1716 32.7697V33.797C83.7679 33.6942 83.4651 33.6942 83.1624 33.6942Z" fill="#978B82"/>
<path fill-rule="evenodd" clip-rule="evenodd" d="M84.6768 37.3921H85.8879V32.7695H84.6768V37.3921ZM85.3832 32.1531C84.8786 32.1531 84.6768 31.9477 84.6768 31.5368C84.6768 31.1259 84.8786 30.9204 85.3832 30.9204C85.8879 30.9204 86.1906 31.1259 86.1906 31.5368C86.0897 32.0504 85.8879 32.1531 85.3832 32.1531Z" fill="#978B82"/>
<path fill-rule="evenodd" clip-rule="evenodd" d="M88.9153 37.3924C87.6033 37.3924 86.7959 36.5706 86.7959 35.1324C86.7959 33.5915 87.7042 32.667 89.1172 32.667C89.42 32.667 89.7227 32.7697 90.3283 32.8724V33.5915C90.0255 33.4888 89.7227 33.4888 89.42 33.4888C88.5116 33.4888 88.007 34.0024 88.007 35.0297C88.007 36.0569 88.4107 36.4678 89.42 36.4678C89.7227 36.4678 90.1264 36.4678 90.3283 36.3651V37.0842C89.5209 37.3924 89.2181 37.3924 88.9153 37.3924Z" fill="#978B82"/>
<path fill-rule="evenodd" clip-rule="evenodd" d="M93.4574 35.235C93.0537 35.235 92.9528 35.235 92.7509 35.235C92.3472 35.3377 92.1453 35.5432 92.1453 35.8514C92.1453 36.2623 92.4481 36.4677 92.9528 36.4677C93.1546 36.4677 93.3565 36.4677 93.5583 36.365V35.235H93.4574ZM93.5583 37.3922V37.0841C92.8518 37.3922 92.65 37.3922 92.3472 37.3922C91.5398 37.3922 91.0352 36.8786 91.0352 35.9541C91.0352 35.1323 91.5398 34.6187 92.4481 34.5159C92.8518 34.5159 93.1546 34.4132 93.5583 34.4132V34.0023C93.5583 33.5914 93.3565 33.386 92.7509 33.386C92.3472 33.386 91.8426 33.4887 91.3379 33.4887V32.7696C92.2463 32.5642 92.7509 32.4614 93.1546 32.4614C93.6592 32.4614 94.0629 32.5642 94.3657 32.7696C94.6685 32.9751 94.7694 33.386 94.7694 34.105V37.1868H93.5583V37.3922Z" fill="#978B82"/>
<path fill-rule="evenodd" clip-rule="evenodd" d="M98.6039 37.3924V34.516C98.6039 33.8997 98.4021 33.5915 97.7965 33.5915C97.5946 33.5915 97.3928 33.5915 97.09 33.6942V37.3924H95.8789V32.7697H97.09V33.0779C97.8974 32.7697 98.2002 32.667 98.6039 32.667C99.0076 32.667 99.4113 32.8724 99.6132 33.0779C99.815 33.3861 99.9159 33.6942 99.9159 34.3106V37.2896H98.6039V37.3924Z" fill="#978B82"/>
<path fill-rule="evenodd" clip-rule="evenodd" d="M103.146 35.235C102.742 35.235 102.641 35.235 102.439 35.235C102.036 35.3377 101.834 35.5432 101.834 35.8514C101.834 36.2623 102.137 36.4677 102.641 36.4677C102.843 36.4677 103.045 36.4677 103.247 36.365V35.235H103.146ZM103.247 37.3922V37.0841C102.54 37.3922 102.338 37.3922 102.036 37.3922C101.228 37.3922 100.724 36.8786 100.724 35.9541C100.724 35.1323 101.228 34.6187 102.137 34.5159C102.54 34.5159 102.843 34.4132 103.247 34.4132V34.0023C103.247 33.5914 103.045 33.386 102.439 33.386C102.036 33.386 101.531 33.4887 101.026 33.4887V32.7696C101.935 32.5642 102.439 32.4614 102.843 32.4614C103.348 32.4614 103.751 32.5642 104.054 32.7696C104.357 32.9751 104.458 33.386 104.458 34.105V37.1868H103.247V37.3922Z" fill="#978B82"/>
<path fill-rule="evenodd" clip-rule="evenodd" d="M40.6729 46.1237V44.4801H39.058V46.1237H38.3516V42.5283H39.058V44.0692H40.6729V42.5283H41.2784V46.1237H40.6729Z" fill="#978B82"/>
<path fill-rule="evenodd" clip-rule="evenodd" d="M45.1132 42.9394C44.5076 42.9394 44.1039 43.453 44.1039 44.3776C44.1039 45.3021 44.5076 45.8157 45.1132 45.8157C45.7188 45.8157 46.1225 45.3021 46.1225 44.3776C46.1225 43.3503 45.7188 42.9394 45.1132 42.9394ZM45.1132 46.2266C44.003 46.2266 43.3975 45.6103 43.3975 44.3776C43.3975 43.1449 44.1039 42.4258 45.1132 42.4258C46.1225 42.4258 46.8289 43.0421 46.8289 44.2748C46.728 45.5075 46.1225 46.2266 45.1132 46.2266Z" fill="#978B82"/>
<path fill-rule="evenodd" clip-rule="evenodd" d="M49.9576 42.9392V46.1237H49.352V42.9392H48.3428V42.5283H51.0678V42.9392H49.9576Z" fill="#978B82"/>
<path fill-rule="evenodd" clip-rule="evenodd" d="M52.8848 46.1237V42.5283H55.0042V42.9392H53.5912V44.0692H54.8024V44.4801H53.5912V45.7128H55.1051V46.1237H52.8848Z" fill="#978B82"/>
<path fill-rule="evenodd" clip-rule="evenodd" d="M57.0225 46.1237V42.5283H57.7289V45.7128H59.041V46.1237H57.0225Z" fill="#978B82"/>
<path fill-rule="evenodd" clip-rule="evenodd" d="M61.7661 46.2263C61.4633 46.2263 61.1605 46.1236 60.7568 46.0209V45.61C61.1605 45.7127 61.4633 45.7127 61.6652 45.7127C61.9679 45.7127 62.3716 45.7127 62.3716 45.1991C62.3716 44.8909 62.1698 44.7882 61.9679 44.6854L61.3624 44.3773C60.9587 44.1718 60.7568 43.8636 60.7568 43.35C60.7568 42.6309 61.2615 42.3228 61.9679 42.3228C62.2707 42.3228 62.5735 42.4255 62.9772 42.5282V42.9391C62.6744 42.8364 62.3716 42.8364 62.1698 42.8364C61.7661 42.8364 61.4633 42.9391 61.4633 43.2473C61.4633 43.4527 61.5642 43.6582 61.9679 43.7609L62.4726 43.9664C62.8763 44.1718 63.1791 44.48 63.1791 44.9936C63.0781 45.8154 62.5735 46.2263 61.7661 46.2263Z" fill="#978B82"/>
<path fill-rule="evenodd" clip-rule="evenodd" d="M69.0327 42.5284C68.73 42.5284 68.5281 42.7338 68.5281 43.042C68.5281 43.2475 68.629 43.4529 68.8309 43.6584L68.9318 43.8638C69.2346 43.6584 69.4364 43.4529 69.4364 43.1447C69.5374 42.6311 69.3355 42.5284 69.0327 42.5284ZM68.73 44.2747C68.4272 44.4802 68.3263 44.6856 68.3263 44.8911C68.3263 45.4047 68.629 45.7129 69.1337 45.7129C69.4364 45.7129 69.6383 45.7129 69.7392 45.5074L68.73 44.2747ZM70.3448 46.1238L70.1429 45.9183C69.8402 46.1238 69.5374 46.2265 69.1337 46.2265C68.2253 46.2265 67.7207 45.8156 67.7207 45.0965C67.7207 44.5829 67.9226 44.3775 68.5281 44.0693L68.4272 43.9665C68.2253 43.6584 68.0235 43.4529 68.0235 43.1447C68.0235 42.5284 68.4272 42.2202 69.1337 42.2202C69.7392 42.2202 70.1429 42.5284 70.1429 43.1447C70.1429 43.6584 69.9411 43.8638 69.3355 44.172L70.3448 45.4047C70.4457 45.1993 70.5466 45.0965 70.5466 44.6856V44.4802H71.1522C71.1522 44.4802 71.1522 44.4802 71.1522 44.6856C71.1522 45.1993 71.0513 45.5074 70.6476 45.8156L71.1522 46.432H70.3448V46.1238Z" fill="#978B82"/>
<path fill-rule="evenodd" clip-rule="evenodd" d="M76.6024 42.9394H76.0977V44.1721H76.6024C77.0061 44.1721 77.2079 43.9667 77.2079 43.5558C77.3088 43.0421 77.107 42.9394 76.6024 42.9394ZM77.5107 46.1239L76.5014 44.3776H76.1987V46.1239H75.4922V42.4258H76.7033C77.2079 42.4258 77.4098 42.4258 77.6116 42.6312C77.8135 42.734 78.0153 43.0421 78.0153 43.3503C78.0153 43.9667 77.5107 44.2748 77.2079 44.3776L78.3181 46.1239H77.5107Z" fill="#978B82"/>
<path fill-rule="evenodd" clip-rule="evenodd" d="M80.1348 46.1237V42.5283H82.2542V42.9392H80.8412V44.0692H82.0524V44.4801H80.8412V45.7128H82.3551V46.1237H80.1348Z" fill="#978B82"/>
<path fill-rule="evenodd" clip-rule="evenodd" d="M85.1815 46.2263C84.8787 46.2263 84.5759 46.1236 84.1722 46.0209V45.61C84.5759 45.7127 84.8787 45.7127 85.0805 45.7127C85.3833 45.7127 85.787 45.7127 85.787 45.1991C85.787 44.8909 85.5852 44.7882 85.3833 44.6854L84.7778 44.3773C84.3741 44.1718 84.0713 43.8636 84.0713 43.35C84.0713 42.6309 84.5759 42.3228 85.2824 42.3228C85.5852 42.3228 85.888 42.4255 86.2917 42.5282V42.9391C85.9889 42.8364 85.6861 42.8364 85.4842 42.8364C85.0805 42.8364 84.7778 42.9391 84.7778 43.2473C84.7778 43.4527 84.8787 43.6582 85.2824 43.7609L85.787 44.1718C86.1907 44.3773 86.4935 44.6854 86.4935 45.1991C86.4935 45.8154 85.888 46.2263 85.1815 46.2263Z" fill="#978B82"/>
<path fill-rule="evenodd" clip-rule="evenodd" d="M89.9247 42.9394C89.3192 42.9394 88.9155 43.453 88.9155 44.3776C88.9155 45.3021 89.3192 45.8157 89.9247 45.8157C90.5303 45.8157 90.934 45.3021 90.934 44.3776C90.934 43.3503 90.5303 42.9394 89.9247 42.9394ZM89.9247 46.2266C88.8145 46.2266 88.209 45.6103 88.209 44.3776C88.209 43.1449 88.9155 42.4258 89.9247 42.4258C90.934 42.4258 91.6405 43.0421 91.6405 44.2748C91.6405 45.5075 90.934 46.2266 89.9247 46.2266Z" fill="#978B82"/>
<path fill-rule="evenodd" clip-rule="evenodd" d="M94.7694 42.9394H94.2647V44.1721H94.7694C95.1731 44.1721 95.3749 43.9667 95.3749 43.5558C95.3749 43.0421 95.274 42.9394 94.7694 42.9394ZM95.6777 46.1239L94.6684 44.3776H94.3657V46.1239H93.6592V42.4258H94.8703C95.3749 42.4258 95.5768 42.4258 95.7786 42.6312C95.9805 42.734 96.1823 43.0421 96.1823 43.3503C96.1823 43.9667 95.6777 44.2748 95.3749 44.3776L96.4851 46.1239H95.6777Z" fill="#978B82"/>
<path fill-rule="evenodd" clip-rule="evenodd" d="M99.5126 42.9392V46.1237H98.8061V42.9392H97.7969V42.5283H100.522V42.9392H99.5126Z" fill="#978B82"/>
<path fill-rule="evenodd" clip-rule="evenodd" d="M103.247 46.2263C102.944 46.2263 102.641 46.1236 102.238 46.0209V45.61C102.641 45.7127 102.944 45.7127 103.146 45.7127C103.449 45.7127 103.852 45.7127 103.852 45.1991C103.852 44.8909 103.651 44.7882 103.449 44.6854L102.843 44.3773C102.44 44.1718 102.137 43.8636 102.137 43.35C102.137 42.6309 102.641 42.3228 103.348 42.3228C103.651 42.3228 103.953 42.4255 104.357 42.5282V42.9391C104.054 42.8364 103.752 42.8364 103.55 42.8364C103.146 42.8364 102.843 42.9391 102.843 43.2473C102.843 43.4527 102.944 43.6582 103.348 43.7609L103.852 43.9664C104.256 44.1718 104.559 44.48 104.559 44.9936C104.559 45.8154 103.953 46.2263 103.247 46.2263Z" fill="#978B82"/>
<path fill-rule="evenodd" clip-rule="evenodd" d="M54.0955 28.558C53.6918 28.4553 53.2881 28.1471 52.9854 27.8389C51.9761 26.9144 51.3706 25.2708 51.3706 23.8326C51.3706 21.5727 52.5817 19.3127 54.6002 18.3882C52.7835 19.21 50.765 19.9291 48.5446 20.6481C48.4437 21.1618 48.3428 21.7781 48.3428 22.2917C48.3428 24.7572 49.6548 26.8117 51.5724 27.5307L54.0955 28.558Z" fill="#AB9765"/>
<path fill-rule="evenodd" clip-rule="evenodd" d="M5.14649 44.5827L2.8252 43.0418C3.43075 43.4527 4.33908 43.7609 5.5502 43.7609C12.8169 43.7609 24.827 29.1739 27.3502 26.1948C29.1669 24.1403 32.0937 20.7504 34.5159 17.7713C37.0391 14.7923 46.8289 2.77344 54.4993 2.77344C55.2057 2.77344 55.8113 2.87616 56.4169 2.97889L61.2613 4.10887C60.9585 4.10887 60.6557 4.10887 60.353 4.10887C53.9946 4.10887 43.3974 17.0523 41.177 20.0313C38.8557 23.1131 36.5345 25.9894 34.1122 28.9684C31.7909 31.9474 21.3956 45.4045 8.57797 45.4045C7.06408 45.4045 5.9539 45.0963 5.14649 44.5827Z" fill="#AB9765"/>
<path fill-rule="evenodd" clip-rule="evenodd" d="M41.1771 20.0314C40.4706 20.9559 39.7641 21.8805 39.0576 22.805C45.1132 21.7777 50.4622 20.3396 54.6002 18.4905L50.6641 17.2578C48.04 18.3878 44.9113 19.3123 41.1771 20.0314Z" fill="#978B82"/>
<path fill-rule="evenodd" clip-rule="evenodd" d="M52.9854 27.8387C55.2057 27.8387 56.9215 26.4005 57.9307 24.4487C57.9307 24.4487 58.0316 24.9624 58.0316 25.476C58.0316 27.4278 56.9215 28.7632 55.1048 28.7632C54.802 28.7632 54.3983 28.6605 54.0955 28.5577C53.6918 28.3523 53.2881 28.1468 52.9854 27.8387Z" fill="#978B82"/>
<path fill-rule="evenodd" clip-rule="evenodd" d="M60.3535 4.10889C60.6563 4.10889 60.959 4.10889 61.2618 4.21161C62.7757 4.51979 63.5831 5.75249 63.5831 7.49882C63.5831 11.2997 60.1516 15.5114 53.6924 15.5114C53.6924 15.5114 59.647 12.2242 59.647 6.88247C59.647 5.85522 59.3442 4.93069 58.7387 4.21161C59.3442 4.10889 59.8489 4.10889 60.3535 4.10889Z" fill="#978B82"/>
<path fill-rule="evenodd" clip-rule="evenodd" d="M2.82546 43.0422C3.22916 43.2477 3.63286 43.4531 4.13749 43.5559C3.53194 42.7341 3.33009 41.7068 3.33009 40.4741C3.33009 32.8724 15.744 26.8116 28.9653 24.3462C29.7727 23.4217 30.5801 22.3944 31.4884 21.3672C17.2579 23.5244 1.00879 28.9689 1.00879 39.2414C1.00879 40.2687 1.31157 42.015 2.82546 43.0422Z" fill="#978B82"/>
</svg>
