<svg width="111" height="49" viewBox="0 0 111 49" fill="none" xmlns="http://www.w3.org/2000/svg">
<g clip-path="url(#clip0_3676_21231)">
<path fill-rule="evenodd" clip-rule="evenodd" d="M13.0531 14.8953C12.8476 14.8953 12.7448 15.2035 12.7448 15.3062C12.642 15.8198 12.4365 16.3334 12.1281 16.7443C11.6143 17.3607 10.6893 17.4634 9.45592 17.4634C7.60592 17.4634 7.09204 17.258 6.7837 16.9498C6.37259 16.5389 6.26981 14.7926 6.26981 11.5054V7.19089C6.26981 3.49278 6.26981 2.7737 6.26981 2.05462C6.26981 1.23282 6.47537 0.924644 7.09204 0.821919C7.40037 0.821919 7.7087 0.719193 7.81148 0.719193C8.11981 0.719193 8.22259 0.616468 8.22259 0.513743C8.22259 0.205566 7.91426 0.205566 7.81148 0.205566C7.29759 0.205566 6.37259 0.205566 5.75592 0.308292C5.55037 0.308292 5.34481 0.308292 5.34481 0.308292C5.34481 0.308292 5.24204 0.308292 5.03648 0.308292C4.52259 0.308292 3.49481 0.205566 2.77537 0.205566C2.67259 0.205566 2.36426 0.205566 2.36426 0.513743C2.36426 0.616468 2.46704 0.719193 2.67259 0.719193C2.87815 0.719193 3.28926 0.719193 3.39204 0.821919C3.90592 0.924644 4.11148 1.33555 4.11148 2.05462C4.11148 2.7737 4.11148 3.49278 4.11148 7.19089V11.4026C4.11148 13.7653 4.11148 15.6144 4.0087 16.5389C3.90592 17.258 3.80315 17.6689 3.39204 17.7716C3.18648 17.8743 2.87815 17.8743 2.67259 17.8743C2.46704 17.8743 2.36426 17.9771 2.36426 18.0798C2.56981 18.4907 2.87815 18.4907 2.98092 18.4907C3.39204 18.4907 3.90592 18.4907 4.31704 18.4907C4.62537 18.4907 4.9337 18.4907 5.13926 18.4907C5.24204 18.4907 5.24204 18.4907 5.34481 18.4907C5.96148 18.4907 6.68092 18.4907 7.7087 18.5934C7.91426 18.5934 8.11981 18.5934 8.32537 18.5934C9.14759 18.5934 10.1754 18.6961 11.5115 18.6961C12.7448 18.6961 12.8476 18.5934 13.0531 17.9771C13.2587 17.258 13.3615 15.8198 13.3615 15.5116C13.2587 15.2035 13.2587 14.8953 13.0531 14.8953Z" fill="#CFD3E8"/>
<path fill-rule="evenodd" clip-rule="evenodd" d="M20.8642 17.9771C20.6586 17.9771 20.1447 17.9771 19.8364 17.8743C19.2197 17.7716 19.117 17.3607 19.0142 16.6416C18.9114 15.6144 18.9114 13.7653 18.9114 11.5054V7.19089C18.9114 3.49278 18.9114 2.7737 18.9114 2.05462C18.9114 1.23282 19.117 0.924644 19.7336 0.821919C20.042 0.821919 20.1447 0.719193 20.2475 0.719193C20.4531 0.719193 20.5559 0.616468 20.5559 0.513743C20.5559 0.205566 20.2475 0.205566 20.1447 0.205566C19.6309 0.205566 18.8086 0.205566 18.2947 0.308292C18.0892 0.308292 17.9864 0.308292 17.8836 0.308292C17.8836 0.308292 17.6781 0.308292 17.4725 0.308292C16.9586 0.308292 16.0336 0.205566 15.5197 0.205566C15.417 0.205566 15.1086 0.205566 15.1086 0.513743C15.1086 0.616468 15.2114 0.719193 15.417 0.719193C15.5197 0.719193 15.8281 0.719193 16.1364 0.821919C16.4447 0.924644 16.6503 1.23282 16.7531 2.05462C16.7531 2.7737 16.7531 3.49278 16.7531 7.19089V11.4026C16.7531 13.7653 16.7531 15.6144 16.6503 16.5389C16.5475 17.258 16.4447 17.6689 16.0336 17.7716C15.8281 17.8743 15.5197 17.8743 15.3142 17.8743C15.1086 17.8743 15.0059 17.9771 15.0059 18.0798C15.0059 18.388 15.3142 18.388 15.417 18.388C15.9309 18.388 16.7531 18.388 17.267 18.2852C17.4725 18.2852 17.5753 18.2852 17.6781 18.2852C17.6781 18.2852 17.7809 18.2852 17.9864 18.2852C18.5003 18.2852 19.5281 18.388 20.5559 18.388C20.967 18.388 20.967 18.1825 20.967 18.0798C21.0697 18.0798 21.0697 17.9771 20.8642 17.9771Z" fill="#CFD3E8"/>
<path fill-rule="evenodd" clip-rule="evenodd" d="M40.4946 0.205264C40.0835 0.205264 39.3641 0.205264 39.0557 0.30799C38.8502 0.30799 38.7474 0.30799 38.7474 0.30799C38.6446 0.30799 38.4391 0.30799 38.2335 0.30799C37.7196 0.30799 37.103 0.205264 36.4863 0.205264C36.2807 0.205264 35.8696 0.205264 35.8696 0.513441C35.8696 0.718891 35.9724 0.718891 36.178 0.718891C36.3835 0.718891 36.7946 0.718891 37.0002 0.821617C37.2057 0.924342 37.2057 1.23252 37.2057 1.33524C37.2057 1.54069 37.103 1.9516 37.0002 2.25977C36.4863 3.90338 33.6085 11.916 32.1696 15.3059L27.853 3.1843C27.5446 2.3625 27.2363 1.54069 27.2363 1.23252C27.2363 1.12979 27.2363 0.924342 27.4419 0.821617C27.6474 0.718891 27.9557 0.718891 28.2641 0.718891C28.4696 0.718891 28.5724 0.616166 28.5724 0.410715C28.5724 0.205264 28.2641 0.102539 27.853 0.102539C27.2363 0.102539 26.6196 0.102539 26.2085 0.205264C26.003 0.205264 25.7974 0.205264 25.6946 0.205264C25.5919 0.205264 25.3863 0.205264 25.078 0.205264C24.5641 0.205264 23.7419 0.102539 22.9196 0.102539C22.6113 0.102539 22.2002 0.102539 22.2002 0.410715C22.2002 0.616166 22.303 0.718891 22.5085 0.718891C22.6113 0.718891 23.0224 0.718891 23.3308 0.821617C24.2558 1.02707 24.6669 1.23252 25.078 2.56795L30.7307 17.2577L30.8335 17.3604C31.2446 18.3877 31.3474 18.7986 31.6557 18.7986C31.8613 18.7986 31.9641 18.5931 32.3752 17.7713C32.478 17.5658 32.5807 17.2577 32.7863 16.9495C33.3002 15.8195 34.2252 13.5596 35.5613 10.2723L36.5891 7.60149C37.4113 5.54698 38.1307 3.69793 38.3363 3.1843C38.953 1.54069 39.2613 1.12979 39.5696 1.02707C39.9807 0.718891 40.4946 0.718891 40.5974 0.718891C40.803 0.718891 41.0085 0.616166 41.0085 0.410715C41.0085 0.205264 40.5974 0.205264 40.4946 0.205264Z" fill="#CFD3E8"/>
<path fill-rule="evenodd" clip-rule="evenodd" d="M51.903 14.9979C51.6975 14.9979 51.6975 15.2034 51.5947 15.4088C51.3892 16.3333 51.1836 16.847 50.5669 17.0524C49.9503 17.2579 49.0253 17.2579 48.4086 17.2579C46.1475 17.2579 45.8391 16.9497 45.8391 15.4088C45.8391 15.1006 45.8391 13.457 45.8391 12.327C45.8391 11.9161 45.8391 11.5052 45.8391 11.2998V9.24528C45.8391 9.14256 45.8392 9.14256 45.9419 9.14256C46.353 9.14256 48.6142 9.14256 49.2308 9.24528C50.053 9.34801 50.2586 9.65618 50.3614 9.96436C50.4642 10.2725 50.4641 10.478 50.4641 10.6834C50.4641 10.8889 50.5669 10.9916 50.6697 10.9916C50.8753 10.9916 50.8753 10.6834 50.8753 10.478C50.8753 10.2725 50.8753 9.45073 50.978 8.93711C50.978 8.42348 51.0808 8.1153 51.0808 7.90985C51.0808 7.80713 51.0808 7.7044 51.0808 7.60168C51.0808 7.39623 50.978 7.2935 50.8753 7.2935C50.7725 7.2935 50.6697 7.39623 50.4641 7.60168C50.2586 7.80713 49.9503 7.90985 49.4364 7.90985C48.9225 7.90985 46.2503 7.90985 45.7364 7.90985C45.7364 7.90985 45.7364 7.90985 45.7364 7.80713V1.43816C45.7364 1.33543 45.7364 1.33543 45.7364 1.33543C46.0447 1.33543 48.5114 1.33543 48.9225 1.43816C50.1558 1.54088 50.3614 1.84906 50.4641 2.15723C50.5669 2.46541 50.5669 2.77358 50.5669 2.97904C50.5669 3.28721 50.6697 3.38994 50.8753 3.38994C50.978 3.38994 51.0808 3.28721 51.0808 3.08176C51.0808 2.87631 51.1836 2.36268 51.1836 1.95178C51.1836 1.74633 51.1836 1.54088 51.1836 1.43816C51.1836 1.02725 51.2864 0.821803 51.2864 0.616352C51.2864 0.513627 51.2864 0.410901 51.2864 0.308176C51.5947 0 51.4919 0 51.3892 0C51.2864 0 51.1836 0 51.1836 0.102725C51.1836 0.102725 51.0808 0.102725 51.0808 0.205451C50.8753 0.205451 50.4642 0.308176 50.1558 0.308176C49.6419 0.308176 45.1197 0.308176 44.9142 0.308176H43.9891C43.4753 0.308176 42.8586 0.308176 42.3447 0.308176C42.2419 0.308176 41.9336 0.308176 41.9336 0.616352C41.9336 0.719078 42.0364 0.821803 42.2419 0.821803C42.4475 0.821803 42.8586 0.821803 42.9614 0.924528C43.6808 1.12998 43.8864 1.43815 43.8864 2.15723C43.8864 2.87631 43.8864 3.59539 43.8864 7.2935V11.5052C43.8864 13.8679 43.8864 15.717 43.7836 16.6415C43.6808 17.3606 43.578 17.7715 43.1669 17.8742C42.9614 17.9769 42.653 17.9769 42.4475 17.9769C42.2419 17.9769 42.1392 18.0797 42.1392 18.1824C42.1392 18.4906 42.4475 18.4906 42.5503 18.4906C42.7558 18.4906 42.9614 18.4906 43.1669 18.4906C43.3725 18.4906 43.6808 18.4906 43.8864 18.4906C44.2975 18.4906 44.7086 18.4906 44.8114 18.4906C45.1197 18.4906 45.6336 18.4906 46.5586 18.5933H47.0725C47.8947 18.5933 49.0253 18.696 50.4641 18.696C51.3891 18.696 51.5947 18.696 51.8003 17.9769C51.903 17.4633 52.1086 15.8197 52.1086 15.6143C52.1086 15.3061 52.1086 14.9979 51.903 14.9979Z" fill="#CFD3E8"/>
<path fill-rule="evenodd" clip-rule="evenodd" d="M107.711 36.3649C107.917 36.4677 108.122 36.5704 108.328 36.7758C108.533 36.9813 108.636 37.1867 108.739 37.3922C108.842 37.5976 108.842 37.9058 108.842 38.1113C108.842 38.4194 108.842 38.6249 108.739 38.8303C108.636 39.0358 108.533 39.2412 108.328 39.4467C108.122 39.6521 107.917 39.7549 107.711 39.8576C107.505 39.9603 107.197 39.9603 106.992 39.9603C106.683 39.9603 106.478 39.9603 106.272 39.8576C106.067 39.7549 105.861 39.6521 105.655 39.4467C105.45 39.2412 105.347 39.0358 105.244 38.8303C105.142 38.6249 105.142 38.3167 105.142 38.1113C105.142 37.8031 105.142 37.5976 105.244 37.3922C105.347 37.1867 105.45 36.9813 105.655 36.7758C105.861 36.5704 105.964 36.4677 106.272 36.3649C106.478 36.2622 106.786 36.2622 106.992 36.2622C107.3 36.2622 107.505 36.2622 107.711 36.3649ZM106.375 36.6731C106.169 36.7758 106.067 36.8786 105.861 36.9813C105.758 37.084 105.655 37.2895 105.553 37.4949C105.45 37.7004 105.45 37.9058 105.45 38.1113C105.45 38.3167 105.45 38.5222 105.553 38.7276C105.655 38.9331 105.758 39.1385 105.861 39.2412C105.964 39.344 106.169 39.5494 106.375 39.5494C106.58 39.6521 106.786 39.6521 106.992 39.6521C107.197 39.6521 107.403 39.6521 107.608 39.5494C107.814 39.4467 107.917 39.344 108.122 39.2412C108.225 39.1385 108.328 38.9331 108.43 38.7276C108.533 38.5222 108.533 38.3167 108.533 38.1113C108.533 37.9058 108.533 37.7004 108.43 37.4949C108.328 37.2895 108.225 37.084 108.122 36.9813C108.019 36.8786 107.814 36.6731 107.608 36.6731C107.403 36.5704 107.197 36.5704 106.992 36.5704C106.786 36.4677 106.58 36.5704 106.375 36.6731ZM106.375 39.2412V37.084H107.197C107.403 37.084 107.608 37.1867 107.711 37.2895C107.814 37.3922 107.917 37.4949 107.917 37.7004C107.917 37.8031 107.917 37.9058 107.917 37.9058C107.917 38.0085 107.814 38.0085 107.814 38.1113C107.814 38.1113 107.711 38.214 107.608 38.214C107.505 38.214 107.505 38.214 107.403 38.3167L108.019 39.344H107.711L107.094 38.3167H106.683V39.344H106.375V39.2412ZM107.197 38.0085C107.3 38.0085 107.3 38.0085 107.403 38.0085C107.505 38.0085 107.505 37.9058 107.505 37.9058C107.505 37.8031 107.608 37.8031 107.608 37.7004C107.608 37.5976 107.608 37.5976 107.608 37.4949L107.505 37.3922C107.505 37.3922 107.403 37.3922 107.3 37.2895C107.197 37.2895 107.197 37.2895 107.094 37.2895H106.58V38.0085H106.889C106.992 38.0085 107.094 38.0085 107.197 38.0085Z" fill="#616DB3"/>
<path fill-rule="evenodd" clip-rule="evenodd" d="M22.6118 28.3523C22.2007 28.2496 21.1729 28.0441 20.7618 28.0441C20.0424 28.0441 19.6313 27.9414 19.3229 27.9414C17.7813 27.9414 16.3424 28.2496 15.2118 28.6605C14.184 29.0714 13.4646 29.585 13.5674 29.8932C13.5674 29.9959 13.5674 29.9959 13.6702 29.9959C14.2868 29.9959 15.5202 29.1741 17.3702 29.1741C18.0896 29.1741 18.9118 29.3796 19.9396 29.6877L27.3396 32.0504C29.8063 32.7695 31.9646 33.1804 33.7118 33.1804C35.459 33.1804 36.8979 32.6668 37.9257 31.7422C38.7479 31.0232 39.2618 30.6123 39.2618 30.3041C39.2618 30.0986 39.159 29.9959 38.8507 29.9959C38.7479 29.9959 38.3368 30.3041 37.8229 30.715C37.2063 31.0232 36.3841 31.4341 35.3563 31.4341C33.9174 31.4341 31.5535 30.715 28.1618 29.7905C28.1618 29.7905 23.0229 28.455 22.6118 28.3523Z" fill="#71B0C8"/>
<path fill-rule="evenodd" clip-rule="evenodd" d="M32.8896 38.5219C33.0951 39.1382 32.8896 39.4464 32.684 39.5491C32.5812 39.5491 32.4785 39.6519 32.4785 39.8573C32.4785 40.0628 32.8896 40.0628 33.5062 40.1655C35.9729 40.2682 38.5423 40.2682 39.0562 40.2682C39.4673 40.2682 39.7757 40.1655 39.7757 39.96C39.7757 39.7546 39.6729 39.7546 39.4673 39.7546C39.159 39.7546 38.5423 39.7546 38.0285 39.5491C37.309 39.3437 36.2812 38.7273 34.9451 35.4401L26.7229 13.2514C26.3118 12.1215 26.1062 11.916 25.9007 11.916C25.6951 11.916 25.5923 12.1215 25.0785 13.3542L17.0618 36.1592C16.4451 38.0083 15.7257 39.4464 14.0812 39.6519C13.7729 39.6519 13.259 39.7546 13.0535 39.7546C12.8479 39.7546 12.7451 39.8573 12.7451 39.96C12.7451 40.1655 12.9507 40.2682 13.4646 40.2682C15.109 40.2682 17.0618 40.1655 17.4729 40.1655C17.884 40.1655 19.4257 40.2682 20.2479 40.2682C20.5562 40.2682 20.7618 40.1655 20.7618 39.96C20.7618 39.8573 20.659 39.7546 20.4535 39.7546H20.1451C19.5285 39.7546 18.809 39.4464 18.809 38.7273C18.809 38.111 19.0146 37.1865 19.3229 36.2619L25.1812 17.9768C25.3868 17.4632 25.4896 17.4632 25.6951 17.9768L32.8896 38.5219Z" fill="#616DB3"/>
<path fill-rule="evenodd" clip-rule="evenodd" d="M30.8332 32.9749C31.861 33.1804 32.8888 33.2831 33.711 33.2831C35.4582 33.2831 36.8971 32.7695 37.9249 31.845C38.7471 31.1259 39.261 30.715 39.261 30.4068C39.261 30.2014 39.1582 30.0986 38.8499 30.0986C38.7471 30.0986 38.336 30.4068 37.8221 30.8177C37.2054 31.1259 36.3832 31.5368 35.3554 31.5368C34.2249 31.5368 32.3749 31.1259 29.9082 30.4068L30.8332 32.9749Z" fill="#71B0C8"/>
<path fill-rule="evenodd" clip-rule="evenodd" d="M50.2587 33.3857C49.1281 33.7966 47.1753 34.3102 45.7365 34.3102C37.4115 34.3102 34.3281 27.8385 34.3281 22.805C34.3281 18.2851 37.5142 11.6079 45.8392 11.6079C52.6226 11.6079 57.3503 15.9224 57.3503 22.1886C57.3503 27.1194 54.3698 30.8176 52.5198 32.0503L58.0698 34.9266C64.0309 37.9056 68.7587 38.522 70.7115 38.522C72.1503 38.522 73.3837 37.8029 75.3365 36.6729C75.542 36.5702 75.6448 36.5702 75.7476 36.5702C75.8503 36.5702 75.9531 36.6729 75.9531 36.7756C75.9531 36.9811 75.8503 36.9811 75.6448 37.0838C73.8976 37.9056 71.3281 40.1656 67.3198 39.6519C63.8253 39.241 59.2003 38.4192 54.5753 35.7484L50.2587 33.3857ZM54.1642 23.0104C54.1642 16.2306 49.642 13.0461 45.1198 13.0461C41.4198 13.0461 37.3087 15.8197 37.3087 22.2913C37.3087 28.9685 41.6253 32.8721 46.6615 32.8721C48.9226 32.8721 54.1642 31.2285 54.1642 23.0104Z" fill="#616DB3"/>
<path fill-rule="evenodd" clip-rule="evenodd" d="M81.1948 12.0187C81.4004 12.0187 81.5031 12.0187 81.6059 12.1215C81.7087 12.2242 81.8115 12.3269 81.8115 12.5324C81.8115 12.8405 81.5031 12.9433 81.4004 12.9433C81.1948 12.9433 80.9893 12.9433 80.6809 13.046C79.9615 13.2514 79.7559 13.5596 79.6531 14.6896C79.5504 15.7169 79.5504 19.0041 79.5504 24.0376V27.5303C79.5504 31.0229 79.1393 35.0292 76.5698 37.3919C74.8226 39.0355 72.9726 39.5491 71.4309 39.7546C71.1226 39.7546 70.6087 39.8573 69.7865 39.8573C69.7865 39.8573 65.9837 40.0628 62.9004 36.8783C61.5643 35.3374 60.6393 32.9747 60.6393 28.763V24.0376C60.6393 18.9013 60.6393 15.6141 60.5365 14.5869C60.4337 13.4569 60.3309 13.1487 59.3031 12.9433C59.0976 12.8405 58.5837 12.8405 58.2754 12.8405C58.0698 12.8405 57.8643 12.7378 57.8643 12.4296C57.8643 12.2242 57.967 12.1215 58.0698 12.0187C58.1726 11.916 58.3781 11.916 58.5837 11.916C60.0226 11.916 61.9754 12.0187 62.1809 12.0187C62.4893 12.0187 64.3393 11.916 65.2643 11.916C65.4698 11.916 65.5726 11.916 65.7781 12.0187C65.8809 12.1215 65.9837 12.2242 65.9837 12.4296C65.9837 12.7378 65.6754 12.8405 65.5726 12.8405C65.367 12.8405 65.1615 12.8405 64.8531 12.9433C64.1337 13.046 63.9281 13.4569 63.8254 14.5869C63.7226 15.6141 63.7226 18.9013 63.7226 24.0376V28.5575C63.7226 33.1802 64.7504 35.1319 65.9837 36.4674C67.5254 37.9055 68.8615 38.2137 70.6087 38.2137C72.4587 38.2137 74.3087 37.2892 75.4393 35.9538C76.8781 34.2074 77.1865 31.4338 77.1865 28.1466V24.0376C77.1865 18.9013 77.1865 15.7169 77.0837 14.6896C76.9809 13.5596 76.8781 13.2514 75.8504 13.046C75.6448 12.9433 75.1309 12.9433 74.8226 12.9433C74.617 12.9433 74.4115 12.8405 74.4115 12.5324C74.4115 12.3269 74.5143 12.2242 74.617 12.1215C74.7198 12.0187 74.9254 12.0187 75.1309 12.0187C76.5698 12.0187 78.317 12.1215 78.4198 12.1215C78.7281 12.1215 80.2698 12.0187 81.1948 12.0187Z" fill="#616DB3"/>
<path fill-rule="evenodd" clip-rule="evenodd" d="M89.2117 13.3542C89.6229 12.1215 89.8284 11.916 90.034 11.916C90.2395 11.916 90.3423 12.1215 90.8562 13.2514C91.3701 14.6896 96.9201 29.7902 99.1812 35.4401C100.415 38.7273 101.442 39.3437 102.265 39.5491C102.778 39.7546 103.292 39.7546 103.703 39.7546C103.909 39.7546 104.012 39.7546 104.012 39.96C104.012 40.1655 103.703 40.2682 103.292 40.2682C102.778 40.2682 100.209 40.2682 97.7423 40.1655C97.0228 40.1655 96.7145 40.1655 96.7145 39.96C96.7145 39.8573 96.8173 39.7546 96.9201 39.7546C97.1256 39.6519 97.3312 39.3437 97.1256 38.7273L93.8367 29.6875C93.734 29.5848 93.734 29.4821 93.5284 29.4821H85.9229C85.7173 29.4821 85.6145 29.5848 85.6145 29.7902L83.2506 36.1592C82.9423 37.0837 82.7367 38.0083 82.7367 38.6246C82.7367 39.3437 83.4562 39.6519 84.0729 39.6519H84.3812C84.5867 39.6519 84.6895 39.7546 84.6895 39.8573C84.6895 40.0628 84.484 40.1655 84.1756 40.1655C83.3534 40.1655 81.8117 40.0628 81.4006 40.0628C80.9895 40.0628 79.0367 40.1655 77.3923 40.1655C76.9812 40.1655 76.6729 40.0628 76.6729 39.8573C76.6729 39.7546 76.7756 39.6519 76.9812 39.6519C77.1867 39.6519 77.7006 39.6519 78.009 39.5491C79.6534 39.3437 80.3729 37.9055 80.9895 36.0565L89.2117 13.3542ZM92.9117 28.0439C93.1173 28.0439 93.1173 27.9412 93.0145 27.8384L89.6228 17.8741C89.4173 17.3605 89.3145 17.3605 89.109 17.8741L86.0256 27.8384C85.9228 28.0439 86.0256 28.0439 86.1284 28.0439H92.9117Z" fill="#616DB3"/>
<path fill-rule="evenodd" clip-rule="evenodd" d="M22.4057 43.9668H23.9474C24.6669 43.9668 25.1807 44.3777 25.1807 45.1995C25.1807 45.7131 24.9752 46.3295 24.4613 46.4322C24.8724 46.4322 25.078 46.8431 25.078 47.254V48.0758C25.078 48.5894 25.1807 48.7949 25.2835 48.7949H24.5641C24.4613 48.6922 24.4613 48.384 24.3585 48.0758V47.3567C24.3585 46.7404 23.9474 46.6377 23.6391 46.6377H22.8169V48.7949H22.2002V43.9668H22.4057ZM22.9196 46.124H23.5363C23.8446 46.124 24.4613 46.124 24.4613 45.1995C24.4613 44.6859 24.153 44.3777 23.6391 44.3777H22.9196V46.124Z" fill="#808285"/>
<path fill-rule="evenodd" clip-rule="evenodd" d="M26.5166 43.8638H28.7777V44.3774H27.0305V45.9183H28.6749V46.4319H27.0305V48.1782H28.8805V48.6919H26.5166V43.8638Z" fill="#808285"/>
<path fill-rule="evenodd" clip-rule="evenodd" d="M32.0665 45.1995C32.0665 44.6859 31.861 44.3777 31.3471 44.3777C30.8332 44.3777 30.6276 44.6859 30.6276 45.1995C30.6276 46.5349 32.786 45.7131 32.786 47.5622C32.786 48.6922 31.9638 49.0003 31.3471 49.0003C30.3193 49.0003 29.9082 48.384 29.9082 47.3567H30.5249C30.5249 47.8704 30.5249 48.4867 31.3471 48.4867C31.7582 48.4867 32.1693 48.1785 32.1693 47.6649C32.1693 46.3295 30.011 47.0486 30.011 45.3022C30.011 44.8913 30.2165 43.9668 31.3471 43.9668C32.2721 43.9668 32.5804 44.4804 32.6832 45.3022H32.0665V45.1995Z" fill="#808285"/>
<path fill-rule="evenodd" clip-rule="evenodd" d="M36.8973 46.3289C36.8973 47.5616 36.6918 48.897 35.4584 48.897C34.2251 48.897 34.0195 47.5616 34.0195 46.3289C34.0195 45.0962 34.2251 43.7607 35.4584 43.7607C36.6918 43.7607 36.8973 45.0962 36.8973 46.3289ZM34.5334 46.3289C34.5334 47.4589 34.6362 48.3834 35.4584 48.3834C36.2806 48.3834 36.3834 47.4589 36.3834 46.3289C36.3834 45.1989 36.2806 44.2744 35.4584 44.2744C34.6362 44.2744 34.5334 45.1989 34.5334 46.3289Z" fill="#808285"/>
<path fill-rule="evenodd" clip-rule="evenodd" d="M38.2339 43.8638H39.7755C40.495 43.8638 40.9061 44.2747 40.9061 45.0965C40.9061 45.6101 40.7005 46.2265 40.1867 46.3292C40.5978 46.3292 40.8033 46.7401 40.8033 47.151V47.9728C40.8033 48.4864 40.9061 48.6919 41.0089 48.6919H40.2894C40.1867 48.5891 40.1867 48.1782 40.0839 47.9728V47.2537C40.0839 46.5346 39.6728 46.5346 39.3644 46.5346H38.645V48.6919H38.0283V43.8638H38.2339ZM38.8505 46.1237H39.3644C39.6728 46.1237 40.2894 46.1237 40.2894 45.1992C40.2894 44.6856 39.9811 44.3774 39.4672 44.3774H38.7478V46.1237H38.8505Z" fill="#808285"/>
<path fill-rule="evenodd" clip-rule="evenodd" d="M43.6811 48.6919H43.0644V44.3774H41.8311V43.8638H44.8116V44.3774H43.6811V48.6919Z" fill="#808285"/>
<path fill-rule="evenodd" clip-rule="evenodd" d="M47.7921 45.1995C47.7921 44.6859 47.5866 44.3777 47.0727 44.3777C46.5588 44.3777 46.3532 44.6859 46.3532 45.1995C46.3532 46.5349 48.5116 45.7131 48.5116 47.5622C48.5116 48.6922 47.6893 49.0003 47.0727 49.0003C45.9421 49.0003 45.6338 48.384 45.6338 47.3567H46.2505C46.2505 47.8704 46.2505 48.4867 47.0727 48.4867C47.4838 48.4867 47.8949 48.1785 47.8949 47.6649C47.8949 46.3295 45.7366 47.0486 45.7366 45.3022C45.7366 44.8913 45.9421 43.9668 47.0727 43.9668C47.9977 43.9668 48.4088 44.4804 48.4088 45.3022H47.7921V45.1995Z" fill="#808285"/>
<path fill-rule="evenodd" clip-rule="evenodd" d="M54.2665 47.4592C54.3692 47.2537 54.3692 46.9455 54.472 46.5346H54.9859C54.9859 46.8428 54.7804 47.7673 54.5748 47.9728L55.1915 48.8973H54.5748L54.2665 48.281C53.9581 48.5891 53.6498 48.7946 53.1359 48.7946C52.0054 48.7946 51.7998 47.8701 51.7998 47.4592C51.7998 46.9455 52.0054 46.5346 52.4165 46.2265L52.7248 45.9183L52.622 45.7128C52.4165 45.4047 52.3137 45.1992 52.3137 44.7883C52.3137 44.1719 52.7248 43.8638 53.2387 43.8638C53.8554 43.8638 54.2665 44.1719 54.2665 44.7883C54.2665 45.3019 53.9581 45.6101 53.6498 45.8156L53.4442 45.9183L54.2665 47.4592ZM53.0331 46.3292C52.622 46.5346 52.4165 46.9455 52.4165 47.4592C52.4165 48.0755 52.8276 48.3837 53.2387 48.3837C53.6498 48.3837 53.8554 48.1782 54.0609 47.8701L53.0331 46.3292ZM53.2387 45.6101C53.4442 45.4047 53.6498 45.1992 53.6498 44.891C53.6498 44.5828 53.4442 44.3774 53.1359 44.3774C52.8276 44.3774 52.622 44.5828 52.622 44.891C52.622 45.0965 52.7248 45.4047 52.9304 45.6101L53.0331 45.8156L53.2387 45.6101Z" fill="#808285"/>
<path fill-rule="evenodd" clip-rule="evenodd" d="M58.4809 43.8638H60.0226C60.7421 43.8638 61.2559 44.2747 61.2559 45.0965C61.2559 45.6101 61.0504 46.2265 60.5365 46.3292C60.9476 46.3292 61.1532 46.7401 61.1532 47.151V47.9728C61.1532 48.4864 61.2559 48.6919 61.3587 48.6919H60.6393C60.5365 48.5891 60.5365 48.1782 60.4337 47.9728V47.2537C60.4337 46.5346 60.0226 46.5346 59.7143 46.5346H58.8921V48.6919H58.2754V43.8638H58.4809ZM58.9948 46.1237H59.6115C59.9198 46.1237 60.5365 46.1237 60.5365 45.1992C60.5365 44.6856 60.2282 44.3774 59.7143 44.3774H58.9948V46.1237Z" fill="#808285"/>
<path fill-rule="evenodd" clip-rule="evenodd" d="M62.6943 43.8638H64.9554V44.3774H63.2082V45.9183H64.8527V46.4319H63.2082V48.1782H65.0582V48.6919H62.6943V43.8638Z" fill="#808285"/>
<path fill-rule="evenodd" clip-rule="evenodd" d="M68.039 45.302C68.039 44.7884 67.8334 44.4802 67.3195 44.4802C66.9084 44.4802 66.6001 44.7884 66.6001 45.302C66.6001 46.6375 68.6556 45.8157 68.6556 47.6647C68.6556 48.7947 67.9362 49.1029 67.3195 49.1029C66.2917 49.1029 65.9834 48.4865 65.9834 47.4593H66.4973C66.4973 47.9729 66.4973 48.5892 67.3195 48.5892C67.7306 48.5892 68.039 48.2811 68.039 47.7674C68.039 46.3293 65.9834 47.1511 65.9834 45.4048C65.9834 44.9939 66.189 44.0693 67.3195 44.0693C68.1417 44.0693 68.5528 44.583 68.5528 45.4048H68.039V45.302Z" fill="#808285"/>
<path fill-rule="evenodd" clip-rule="evenodd" d="M70.1973 48.6919H70.8139V43.8638H70.1973V48.6919Z" fill="#808285"/>
<path fill-rule="evenodd" clip-rule="evenodd" d="M72.0479 43.8638H73.384C74.9256 43.8638 75.1312 44.891 75.1312 46.2265C75.1312 47.4592 74.8229 48.5891 73.4867 48.5891H72.1506V43.8638H72.0479ZM72.5617 48.1782H73.1784C74.2062 48.1782 74.309 47.151 74.309 46.2265C74.309 45.3019 74.2062 44.2747 73.1784 44.2747H72.5617V48.1782Z" fill="#808285"/>
<path fill-rule="evenodd" clip-rule="evenodd" d="M76.5693 43.8638H78.8304V44.3774H77.0832V45.9183H78.7277V46.4319H77.0832V48.1782H78.9332V48.6919H76.5693V43.8638Z" fill="#808285"/>
<path fill-rule="evenodd" clip-rule="evenodd" d="M79.8584 43.8638H80.5778L82.2223 47.8701V43.8638H82.839V48.6919H82.0167L80.4751 44.7883V48.6919H79.8584V43.8638Z" fill="#808285"/>
<path fill-rule="evenodd" clip-rule="evenodd" d="M87.0528 47.2537C86.95 48.1782 86.6417 49 85.6139 49C84.2778 49 84.0723 47.6646 84.0723 46.4319C84.0723 45.1992 84.2778 43.8638 85.6139 43.8638C86.6417 43.8638 87.0528 44.3774 87.0528 45.4047H86.4361C86.4361 44.891 86.2306 44.3774 85.6139 44.3774C84.7917 44.3774 84.6889 45.3019 84.6889 46.4319C84.6889 47.5619 84.7917 48.4864 85.6139 48.4864C86.3334 48.4864 86.4361 47.7673 86.4361 47.151H87.0528V47.2537Z" fill="#808285"/>
<path fill-rule="evenodd" clip-rule="evenodd" d="M88.2861 43.8638H90.65V44.3774H88.8V45.9183H90.5472V46.4319H88.8V48.1782H90.65V48.6919H88.2861V43.8638Z" fill="#808285"/>
<path fill-rule="evenodd" clip-rule="evenodd" d="M97.0226 47.2537C96.9198 48.1782 96.6114 49 95.5837 49C94.2475 49 94.042 47.6646 94.042 46.4319C94.042 45.1992 94.2475 43.8638 95.5837 43.8638C96.6114 43.8638 97.0226 44.3774 97.0226 45.4047H96.4059C96.4059 44.891 96.2003 44.3774 95.5837 44.3774C94.7614 44.3774 94.6587 45.3019 94.6587 46.4319C94.6587 47.5619 94.7614 48.4864 95.5837 48.4864C96.3031 48.4864 96.4059 47.7673 96.4059 47.151H97.0226V47.2537Z" fill="#808285"/>
<path fill-rule="evenodd" clip-rule="evenodd" d="M98.2559 43.8638H98.7697V48.1782H100.62V48.6919H98.2559V43.8638Z" fill="#808285"/>
<path fill-rule="evenodd" clip-rule="evenodd" d="M101.647 43.8638H102.264V47.2537C102.264 47.9728 102.47 48.281 103.086 48.281C103.703 48.281 103.909 47.8701 103.909 47.2537V43.8638H104.525V47.2537C104.525 48.1782 104.011 48.7946 103.086 48.7946C102.161 48.7946 101.75 48.281 101.75 47.2537V43.8638H101.647Z" fill="#808285"/>
<path fill-rule="evenodd" clip-rule="evenodd" d="M105.759 43.8638H107.198C107.814 43.8638 108.431 44.1719 108.431 45.0965C108.431 45.5074 108.123 46.021 107.712 46.1237C108.328 46.2265 108.534 46.7401 108.534 47.3564C108.534 48.3837 108.02 48.7946 106.992 48.7946H105.759V43.8638ZM106.375 46.021H107.095C107.3 46.021 107.917 45.9183 107.917 45.1992C107.917 44.6856 107.712 44.3774 107.095 44.3774H106.478V46.021H106.375ZM106.375 48.281H107.198C107.814 48.281 108.02 47.8701 108.02 47.3564C108.02 46.6374 107.609 46.4319 107.095 46.4319H106.375V48.281Z" fill="#808285"/>
</g>
<defs>
<clipPath id="clip0_3676_21231">
<rect width="111" height="49" fill="white"/>
</clipPath>
</defs>
</svg>
