<svg width="109" height="49" viewBox="0 0 109 49" fill="none" xmlns="http://www.w3.org/2000/svg">
<path d="M16.9551 17.6687V21.2641C16.9551 23.8322 19.4782 23.8322 19.4782 23.8322H26.7449V15.1006H19.4782C16.9551 15.2033 16.9551 17.6687 16.9551 17.6687Z" fill="#BDBEC0"/>
<path d="M16.9551 32.0506V41.8095H23.5153C23.5153 41.8095 26.7449 41.8095 26.7449 38.5223V29.4824H19.4782C16.9551 29.5851 16.9551 32.0506 16.9551 32.0506Z" fill="#BDBEC0"/>
<path d="M23.5153 7.19092H4.23842C4.23842 7.19092 1.00879 7.19092 1.00879 10.4781V38.5222C1.00879 38.5222 1.00879 41.8094 4.23842 41.8094H16.7532H17.056V32.0505C17.056 32.0505 17.056 29.4823 19.5792 29.4823H26.8458V29.1741V24.0379V23.7297H19.5792C19.5792 23.7297 17.056 23.7297 17.056 21.1616V17.5662C17.056 17.5662 17.056 14.998 19.5792 14.998H26.8458V14.6899V10.2727C26.7449 10.4781 26.7449 7.19092 23.5153 7.19092Z" fill="#BC2F2C"/>
<path d="M36.7365 29.4821H35.8281V21.5723H42.1865V22.4968H36.7365V24.9622H40.1679V25.8867H36.7365V29.4821Z" fill="#636569"/>
<path d="M45.214 21.5723H44.3057V29.4821H45.214V21.5723Z" fill="#636569"/>
<path d="M54.0957 29.4821H47.4346V21.5723H53.7929V22.4968H48.3429V24.9622H51.2698V25.8867H48.3429V28.5576H54.0957V29.4821Z" fill="#636569"/>
<path d="M60.1517 24.8592C61.5647 24.8592 63.0786 25.3728 63.0786 27.1191C63.0786 28.8655 61.2619 29.6873 59.3443 29.6873C57.023 29.6873 55.9128 28.4546 55.4082 27.9409L56.1147 27.3246C56.6193 27.7355 57.3258 28.7627 59.3443 28.7627C61.0601 28.7627 62.0693 28.0437 62.0693 27.1191C62.0693 26.0919 61.0601 25.7837 60.3536 25.7837H58.7388C57.2249 25.7837 56.0138 25.2701 56.0138 23.8319C56.0138 22.7019 57.023 21.4692 59.3443 21.4692C61.161 21.4692 62.1702 22.291 62.5739 22.5992L61.9684 23.3183C61.3628 22.9074 60.6564 22.3938 59.2434 22.3938C57.5276 22.3938 56.8212 23.2156 56.8212 23.8319C56.8212 24.8592 58.1332 24.8592 59.0415 24.8592H60.1517Z" fill="#636569"/>
<path d="M68.1242 29.4821H67.115V22.4968H64.2891V21.5723H70.9502V22.4968H68.1242V29.4821Z" fill="#636569"/>
<path d="M75.0882 22.7022L73.6752 25.8867H76.602L75.0882 22.7022ZM79.2261 29.4821H78.2169L76.9048 26.8113H73.1706L71.9595 29.4821H70.9502L74.6845 21.5723H75.5928L79.2261 29.4821Z" fill="#636569"/>
<path d="M86.2911 21.5723H85.3828V29.4821H86.2911V21.5723Z" fill="#636569"/>
<path d="M95.4753 29.4821H94.5669L89.5206 23.1131V29.4821H88.6123V21.5723H89.5206L94.5669 28.1467V21.5723H95.4753V29.4821Z" fill="#636569"/>
<path d="M104.66 29.4821H103.752L98.7052 23.1131V29.4821H97.7969V21.5723H98.7052L103.752 28.1467V21.5723H104.66V29.4821Z" fill="#636569"/>
<path d="M106.476 28.2494V27.8385H106.779C106.981 27.8385 107.082 27.8385 107.082 28.044C107.082 28.2494 106.88 28.2494 106.779 28.2494H106.476ZM106.476 28.4549H106.678L107.082 29.0712H107.283L106.88 28.4549C107.082 28.4549 107.283 28.3521 107.283 28.044C107.283 27.7358 107.082 27.6331 106.779 27.6331H106.274V29.0712H106.476V28.4549ZM106.779 29.6876C107.485 29.6876 107.99 29.174 107.99 28.4549C107.99 27.7358 107.384 27.2222 106.779 27.2222C106.072 27.2222 105.568 27.7358 105.568 28.4549C105.467 29.0712 106.072 29.6876 106.779 29.6876ZM105.77 28.3521C105.77 27.7358 106.173 27.3249 106.779 27.3249C107.384 27.3249 107.788 27.7358 107.788 28.3521C107.788 28.9685 107.384 29.3794 106.779 29.3794C106.173 29.3794 105.77 28.9685 105.77 28.3521Z" fill="#636569"/>
<path d="M38.755 36.6726V34.8236H36.3328V36.6726H35.8281V32.769H36.3328V34.4127H38.8559V32.769H39.3605V36.6726H38.755Z" fill="#636569"/>
<path d="M42.9935 36.7755C41.8833 36.7755 40.874 35.851 40.874 34.721C40.874 33.4883 41.8833 32.6665 42.9935 32.6665C44.1037 32.6665 45.012 33.4883 45.012 34.721C45.1129 35.851 44.1037 36.7755 42.9935 36.7755ZM42.9935 33.0774C42.0851 33.0774 41.3787 33.7965 41.3787 34.721C41.3787 35.6455 42.0851 36.2619 42.9935 36.2619C43.9018 36.2619 44.6083 35.5428 44.6083 34.6183C44.6083 33.7965 43.9018 33.0774 42.9935 33.0774Z" fill="#636569"/>
<path d="M48.2418 33.1801V36.6728H47.7372V33.1801H46.3242V32.6665H49.6548V33.1801H48.2418Z" fill="#636569"/>
<path d="M51.1689 36.6726V32.769H54.2976V33.2827H51.5726V34.5154H52.9856V35.029H51.5726V36.3644H54.3986V36.8781H51.1689V36.6726Z" fill="#636569"/>
<path d="M55.9121 36.6726V32.769H56.4167V36.2617H58.839V36.7753H55.9121V36.6726Z" fill="#636569"/>
<path d="M60.0508 36.6726V32.769H63.1795V33.2827H60.5554V34.5154H61.9684V35.029H60.5554V36.3644H63.3813V36.8781H60.0508V36.6726Z" fill="#636569"/>
<path d="M66.3082 36.7757C65.5008 36.7757 64.8953 36.5703 64.3906 35.9539L64.6934 35.6457C65.198 36.1594 65.6017 36.3648 66.3082 36.3648C66.8128 36.3648 67.7212 36.2621 67.7212 35.543C67.7212 35.0294 67.2165 34.9266 66.8128 34.8239H66.0054C65.5008 34.8239 65.299 34.7212 64.9962 34.6185C64.7943 34.413 64.5925 34.1048 64.5925 33.7967C64.5925 32.9749 65.6017 32.564 66.3082 32.564C66.9138 32.564 67.4184 32.7694 67.923 33.1803L67.6203 33.5912C67.2166 33.283 66.8128 33.0776 66.2073 33.0776C65.8036 33.0776 64.9962 33.283 64.9962 33.7967C64.9962 34.0021 65.0971 34.1048 65.198 34.2076C65.3999 34.3103 65.5008 34.3103 66.0054 34.3103H66.611C66.9138 34.3103 67.1156 34.3103 67.4184 34.413C67.8221 34.6185 68.1249 35.0294 68.1249 35.4403C68.1249 36.4675 67.0147 36.7757 66.3082 36.7757Z" fill="#636569"/>
</svg>
