<svg width="109" height="49" viewBox="0 0 109 49" fill="none" xmlns="http://www.w3.org/2000/svg">
<g clip-path="url(#clip0_3676_21460)">
<path d="M71.0778 28.9038C72.289 28.9038 73.5001 28.9038 74.6103 28.6984V25.9248H66.2334C66.4353 28.3902 68.151 28.9038 71.0778 28.9038Z" fill="#0075BB"/>
<path d="M69.564 19.2476C68.7566 19.2476 68.0501 19.5557 67.4445 20.0694C66.6371 20.583 66.3343 21.5075 66.2334 22.5348H72.5917C72.289 20.4803 71.5825 19.2476 69.564 19.2476Z" fill="#0075BB"/>
<path d="M36.0567 24.0758C36.0567 20.8913 34.8456 19.3504 32.3225 19.3504C31.2123 19.2477 30.203 19.7613 29.4966 20.5831C28.7901 21.4049 28.4873 22.6376 28.4873 24.1785C28.4873 27.4657 29.7993 29.0066 32.3225 29.0066C34.8456 29.1093 36.0567 27.4657 36.0567 24.0758Z" fill="#0075BB"/>
<path d="M53.188 39.7549C52.8852 39.7549 52.5825 39.8576 52.2797 40.0631C52.0778 40.2685 51.876 40.6794 51.876 40.9876H54.3991C54.3991 40.6794 54.2982 40.2685 54.0963 40.0631C53.7936 39.8576 53.4908 39.7549 53.188 39.7549Z" fill="#0075BB"/>
<path d="M44.8108 39.7549C44.4071 39.7549 44.0034 39.8576 43.7006 40.2685C43.3978 40.5767 43.2969 41.0903 43.2969 41.5012C43.2969 41.9121 43.3978 42.4257 43.7006 42.7339C44.0034 43.0421 44.4071 43.2475 44.8108 43.1448C45.2145 43.1448 45.6182 43.0421 45.9209 42.7339C46.2237 42.323 46.3247 41.9121 46.3247 41.5012C46.3247 41.0903 46.2237 40.5767 45.9209 40.2685C45.6182 39.9603 45.2145 39.7549 44.8108 39.7549Z" fill="#0075BB"/>
<path d="M59.3441 40.1656C59.1423 40.371 58.9404 40.7819 58.9404 41.0901H61.4636C61.4636 40.7819 61.3626 40.371 61.1608 40.1656C60.9589 39.9601 60.6562 39.7547 60.3534 39.8574C59.8488 39.7547 59.546 39.9601 59.3441 40.1656Z" fill="#0075BB"/>
<path d="M69.6387 15.1006C71.6572 15.1006 73.3729 15.6143 74.685 16.6415V0H26.4424V17.1551C27.9563 16.0252 29.9748 15.4088 32.397 15.4088C35.122 15.4088 37.3424 16.2306 38.9572 17.7715C40.572 19.3124 41.2785 21.4696 41.2785 24.0377C41.2785 26.8113 40.4711 29.0713 38.8563 30.7149C37.2415 32.3585 35.0211 33.1803 32.1952 33.1803C29.8739 33.1803 27.9563 32.6667 26.4424 31.5367V48.8973H74.685V32.7694C73.0702 33.283 71.4553 33.4885 69.8405 33.4885C67.0146 33.4885 64.8952 32.6667 63.3813 31.1258C61.8674 29.5849 61.06 27.3249 61.06 24.5514C61.06 21.6751 61.8674 19.3124 63.5831 17.6688C65.097 16.0252 67.3174 15.1006 69.6387 15.1006ZM42.7924 16.1279H48.0405V17.8742C49.2516 15.8197 51.1692 15.717 53.5915 15.717C57.3257 15.717 59.2433 17.9769 59.2433 22.5996V32.8721H53.9952V23.6268C53.9952 21.0587 53.0868 19.7233 51.1692 19.7233C50.2609 19.7233 49.4535 20.0314 48.9489 20.7505C48.3433 21.4696 48.0405 22.3941 48.0405 23.3187V32.8721H42.7924V16.1279ZM41.4803 43.761H40.7739V41.1929C40.7739 40.2683 40.3702 39.8574 39.6637 39.8574C39.3609 39.8574 38.9572 39.9602 38.7553 40.2683C38.5535 40.5765 38.3516 40.8847 38.3516 41.2956V43.761H37.6452V37.1866H38.3516V40.0629C38.6544 39.5493 39.26 39.2411 39.8655 39.2411C40.8748 39.2411 41.3794 39.8574 41.3794 41.0901V43.761H41.4803ZM46.4257 43.2474C46.022 43.6583 45.4165 43.9665 44.71 43.8637C43.5998 43.9665 42.5905 43.0419 42.4896 41.912C42.4896 41.8092 42.4896 41.7065 42.4896 41.6038C42.4896 40.9874 42.6915 40.3711 43.0952 39.8574C43.5998 39.4465 44.2053 39.2411 44.8109 39.2411C45.4165 39.2411 46.022 39.4465 46.4257 39.8574C46.8294 40.3711 47.0313 40.8847 47.0313 41.5011C47.1322 42.1174 46.8294 42.7338 46.4257 43.2474ZM50.3618 39.9602H49.2516V42.4256C49.2516 42.631 49.2516 42.8365 49.4535 43.0419C49.5544 43.1447 49.7563 43.2474 49.9581 43.2474C50.16 43.2474 50.2609 43.2474 50.4628 43.1447V43.761C50.2609 43.8637 50.059 43.8637 49.7563 43.8637C48.9489 43.8637 48.5452 43.4528 48.5452 42.5283V39.8574H47.7378V39.2411H48.4442V38.1111L49.1507 37.9057V39.2411H50.2609L50.3618 39.9602ZM55.1053 41.7065H51.8757C51.8757 42.1174 51.9766 42.5283 52.2794 42.8365C52.5822 43.1447 52.9859 43.2474 53.3896 43.2474C53.8942 43.2474 54.3989 43.0419 54.8026 42.7338V43.3501C54.2979 43.6583 53.7933 43.761 53.1878 43.761C52.5822 43.761 52.0776 43.5556 51.6739 43.1447C51.2702 42.631 51.0683 42.0147 51.0683 41.3983C51.0683 40.782 51.2702 40.1656 51.6739 39.7547C52.0776 39.3438 52.5822 39.1384 53.1878 39.1384C53.6924 39.1384 54.197 39.3438 54.6007 39.652C54.9035 40.0629 55.1053 40.6792 55.1053 41.1929V41.7065ZM56.922 43.761H56.2155V37.1866H56.922V43.761ZM62.9776 42.8365C63.3813 43.1447 63.785 43.2474 64.2896 43.2474C64.8952 43.2474 65.2989 43.0419 65.2989 42.631C65.2989 42.5283 65.2989 42.4256 65.1979 42.3229C65.097 42.2201 65.097 42.1174 64.9961 42.1174C64.8952 42.0147 64.7942 42.0147 64.6933 41.912C64.5924 41.912 64.3905 41.8092 64.2896 41.7065C64.0878 41.6038 63.8859 41.6038 63.785 41.5011C63.6841 41.3983 63.4822 41.2956 63.3813 41.1929C63.2803 41.0901 63.1794 40.9874 63.1794 40.8847C63.0785 40.782 63.0785 40.5765 63.0785 40.4738C63.0785 40.2683 63.0785 40.0629 63.1794 39.9602C63.2803 39.7547 63.3813 39.652 63.5831 39.5493C63.785 39.4465 63.9868 39.3438 64.1887 39.3438C64.3905 39.2411 64.5924 39.2411 64.7942 39.2411C65.1979 39.2411 65.5007 39.3438 65.9044 39.4465V40.1656C65.6016 39.9602 65.097 39.8574 64.6933 39.8574C64.5924 39.8574 64.4915 39.8574 64.2896 39.8574C64.1887 39.8574 64.0878 39.9602 63.9868 39.9602C63.8859 39.9602 63.8859 40.0629 63.785 40.1656C63.785 40.2683 63.6841 40.3711 63.6841 40.3711C63.6841 40.4738 63.6841 40.5765 63.785 40.6792C63.785 40.782 63.8859 40.782 63.9868 40.8847C64.0878 40.9874 64.1887 40.9874 64.2896 41.0901C64.3905 41.0901 64.5924 41.1929 64.6933 41.2956C64.8952 41.3983 65.097 41.3983 65.1979 41.5011C65.2989 41.6038 65.5007 41.7065 65.6016 41.8092C66.0053 42.1174 66.1063 42.7338 65.8035 43.1447C65.7026 43.3501 65.6016 43.4528 65.3998 43.5556C65.1979 43.6583 64.9961 43.761 64.7942 43.761C64.5924 43.8637 64.2896 43.8637 64.0878 43.8637C63.6841 43.8637 63.2803 43.761 62.8766 43.5556L62.9776 42.8365ZM61.5646 39.7547C61.8674 40.1656 62.0692 40.782 62.0692 41.2956V41.7065H58.8396C58.8396 42.1174 58.9405 42.5283 59.2433 42.8365C59.5461 43.1447 59.9498 43.2474 60.3535 43.2474C60.8581 43.2474 61.3628 43.0419 61.7665 42.7338V43.3501C61.2618 43.6583 60.7572 43.761 60.1516 43.761C59.5461 43.761 59.0415 43.5556 58.6378 43.1447C58.234 42.631 58.0322 42.0147 58.0322 41.3983C58.0322 40.782 58.234 40.1656 58.6378 39.7547C59.0415 39.3438 59.5461 39.1384 60.1516 39.1384C60.7572 39.1384 61.2618 39.3438 61.5646 39.7547Z" fill="#0075BB"/>
<path d="M81.1819 47.7769H80.7782L80.2736 46.9551C80.2736 46.8524 80.1727 46.8524 80.1727 46.7496L80.0718 46.6469L79.9708 46.5442C79.8699 46.5442 79.8699 46.5442 79.769 46.5442H79.4662V47.7769H79.0625V44.7979H79.9708C80.0718 44.7979 80.1727 44.7979 80.3745 44.7979C80.4755 44.7979 80.5764 44.9006 80.6773 44.9006C80.7782 45.0033 80.7782 45.0033 80.8792 45.106C80.8792 45.2088 80.9801 45.3115 80.9801 45.4142C80.9801 45.5169 80.9801 45.6197 80.9801 45.7224C80.9801 45.8251 80.8792 45.9278 80.8792 45.9278C80.7782 46.0306 80.7782 46.0306 80.6773 46.1333C80.5764 46.1333 80.4755 46.236 80.3745 46.236C80.3745 46.236 80.4755 46.236 80.4755 46.3387L80.5764 46.4415L80.6773 46.5442C80.6773 46.5442 80.7782 46.6469 80.7782 46.7496L81.1819 47.7769ZM79.3653 45.2088V46.236H79.8699C79.9708 46.236 80.0718 46.236 80.0718 46.236C80.1727 46.236 80.1727 46.1333 80.2736 46.1333C80.3745 46.1333 80.3745 46.0306 80.3745 45.9278C80.3745 45.8251 80.3745 45.7224 80.3745 45.7224C80.3745 45.6197 80.2736 45.4142 80.1727 45.3115C80.1727 45.2088 79.9708 45.2088 79.8699 45.2088H79.3653Z" fill="#0075BB"/>
<path d="M79.959 49.038C78.5461 49.038 77.335 47.908 77.335 46.3671C77.335 44.929 78.4451 43.6963 79.959 43.6963C81.372 43.6963 82.5831 44.8263 82.5831 46.3671C82.5831 47.8053 81.372 49.038 79.959 49.038ZM79.959 44.1072C78.7479 44.1072 77.7387 45.1344 77.7387 46.3671C77.7387 47.5999 78.7479 48.6271 79.959 48.6271C81.1701 48.6271 82.1794 47.5999 82.1794 46.3671C82.1794 45.1344 81.1701 44.1072 79.959 44.1072Z" fill="#0075BB"/>
</g>
<defs>
<clipPath id="clip0_3676_21460">
<rect width="109" height="49" fill="white"/>
</clipPath>
</defs>
</svg>
